<?xml version="1.0" encoding="UTF-8"?> <svg xmlns="http://www.w3.org/2000/svg" width="1092" height="299" viewBox="0 0 1092 299" fill="none"> <g clip-path="url(#clip0_629_68)"> <path d="M64.2296 54.35V96.82H56.3096V51.37L64.2296 54.35Z" fill="#9E9C9C"></path> <path d="M32.5898 50.39C32.5898 39.53 38.5098 33.61 45.4498 33.61C52.3898 33.61 53.3698 34.61 61.2498 38.55C69.1298 42.49 71.1298 43.49 75.0898 43.49C79.0498 43.49 81.0098 40.49 81.0098 34.59H87.9098C88.9098 46.43 81.9898 51.37 75.0498 51.37C68.1098 51.37 66.1498 50.37 59.2498 46.43C52.3498 42.49 50.3498 41.49 46.3898 41.49C42.4298 41.49 40.4698 44.49 39.4898 51.37L32.5898 50.39Z" fill="#9E9C9C"></path> <path d="M61.25 122.5C49.1359 122.5 37.2939 118.908 27.2213 112.178C17.1488 105.447 9.29827 95.8814 4.66241 84.6894C0.0265388 73.4974 -1.18642 61.1821 1.17693 49.3007C3.54027 37.4194 9.37377 26.5057 17.9397 17.9397C26.5057 9.37377 37.4194 3.54027 49.3007 1.17693C61.1821 -1.18642 73.4974 0.0265388 84.6894 4.66241C95.8814 9.29827 105.447 17.1488 112.178 27.2213C118.908 37.2939 122.5 49.1359 122.5 61.25C122.482 77.4888 116.022 93.0573 104.54 104.54C93.0573 116.022 77.4888 122.482 61.25 122.5V122.5ZM61.25 4.00003C49.9191 4.00003 38.8427 7.36003 29.4214 13.6551C20.0001 19.9502 12.6571 28.8977 8.32097 39.3661C3.98483 49.8345 2.85029 61.3536 5.06084 72.4668C7.27139 83.5799 12.7277 93.788 20.7399 101.8C28.752 109.812 38.9601 115.269 50.0733 117.479C61.1865 119.69 72.7056 118.555 83.174 114.219C93.6423 109.883 102.59 102.54 108.885 93.1187C115.18 83.6974 118.54 72.6209 118.54 61.29C118.529 46.099 112.49 31.5332 101.748 20.7916C91.0068 10.0499 76.441 4.01062 61.25 4.00003V4.00003Z" fill="#9E9C9C"></path> <path d="M161.36 51.8101V81.6601H157.65V51.8101H149.55V48.3101H169.46V51.8101H161.36Z" fill="#9E9C9C"></path> <path d="M176 50.5C176.507 50.498 177.003 50.6465 177.425 50.9266C177.847 51.2067 178.177 51.6058 178.372 52.0734C178.568 52.541 178.62 53.056 178.522 53.5533C178.425 54.0505 178.182 54.5076 177.824 54.8666C177.466 55.2257 177.01 55.4705 176.513 55.5701C176.016 55.6697 175.501 55.6196 175.033 55.4261C174.564 55.2326 174.164 54.9045 173.882 54.4833C173.601 54.0621 173.45 53.5668 173.45 53.06C173.453 52.3836 173.722 51.7355 174.199 51.2562C174.677 50.777 175.324 50.5053 176 50.5ZM177.8 60.91V81.66H174.2V60.91H177.8Z" fill="#9E9C9C"></path> <path d="M188.85 45.2V81.66H185.25V45.2H188.85Z" fill="#9E9C9C"></path> <path d="M212.2 45.2H215.8V81.66H212.2V78.76C211.375 79.8603 210.302 80.7506 209.068 81.3587C207.835 81.9668 206.475 82.2756 205.1 82.26C199.85 82.26 195 78.56 195 71.26C195 63.96 199.8 60.41 205.1 60.41C206.473 60.3747 207.835 60.6696 209.07 61.2699C210.306 61.8703 211.379 62.7585 212.2 63.86V45.2ZM198.7 71.26C198.7 75.71 201.2 79.0599 205.5 79.0599C209.8 79.0599 212.4 75.4099 212.4 71.3099C212.4 65.9599 208.7 63.61 205.5 63.61C202 63.61 198.7 66.21 198.7 71.26Z" fill="#9E9C9C"></path> <path d="M239.15 60.9101H242.75V81.6601H239.15V78.7601C238.325 79.8604 237.252 80.7507 236.019 81.3588C234.785 81.967 233.425 82.2757 232.05 82.2601C226.8 82.2601 221.95 78.5601 221.95 71.2601C221.95 63.9601 226.75 60.4101 232.05 60.4101C233.423 60.3748 234.785 60.6697 236.021 61.2701C237.256 61.8704 238.329 62.7586 239.15 63.8601V60.9101ZM225.65 71.2601C225.65 75.7101 228.15 79.0601 232.45 79.0601C236.75 79.0601 239.35 75.4101 239.35 71.3101C239.35 65.9601 235.65 63.6101 232.45 63.6101C228.9 63.6101 225.65 66.2101 225.65 71.2601V71.2601Z" fill="#9E9C9C"></path> <path d="M269.45 48.3101C272.8 48.3101 275.6 48.7001 277.85 50.6601C278.836 51.5654 279.614 52.673 280.132 53.9071C280.65 55.1412 280.895 56.4725 280.85 57.8101C280.85 62.5101 277.9 67.1601 270.3 67.1601H267.1V81.6601H263.4V48.3101H269.45ZM267.1 63.6601H270.1C274.5 63.6601 277.15 61.4601 277.15 57.6601C277.15 52.3601 272.2 51.8601 269.8 51.8601H267.1V63.6601Z" fill="#9E9C9C"></path> <path d="M289.55 73C289.55 74.45 289.55 76.15 290.55 77.45C291.018 77.9496 291.583 78.3478 292.211 78.6201C292.839 78.8923 293.516 79.0328 294.2 79.0328C294.885 79.0328 295.562 78.8923 296.189 78.6201C296.817 78.3478 297.382 77.9496 297.85 77.45C298.85 76.15 298.85 74.45 298.85 73V60.91H302.45V73.41C302.45 75.96 302.2 77.86 300.55 79.66C298.857 81.3273 296.576 82.2618 294.2 82.2618C291.824 82.2618 289.543 81.3273 287.85 79.66C286.2 77.86 285.95 75.96 285.95 73.41V60.91H289.55V73Z" fill="#9E9C9C"></path> <path d="M313.5 81.66H309.9V45.2H313.5V63.81C314.345 62.7378 315.424 61.8738 316.655 61.2843C317.886 60.6949 319.236 60.3958 320.6 60.41C327.1 60.41 330.7 65.81 330.7 71.41C330.7 77.01 327.05 82.26 320.75 82.26C319.351 82.2946 317.963 81.9952 316.702 81.3865C315.441 80.7778 314.344 79.8774 313.5 78.76V81.66ZM327 71.41C327 66.31 323.55 63.61 320.2 63.61C316.85 63.61 313.3 66.36 313.3 71.36C313.3 75.61 316 79.0599 320.25 79.0599C324.5 79.0599 327 75.56 327 71.41Z" fill="#9E9C9C"></path> <path d="M340.45 45.2V81.66H336.85V45.2H340.45Z" fill="#9E9C9C"></path> <path d="M349.7 50.5C350.207 50.498 350.703 50.6465 351.125 50.9266C351.548 51.2067 351.877 51.6058 352.073 52.0734C352.268 52.541 352.32 53.056 352.222 53.5533C352.125 54.0505 351.882 54.5076 351.524 54.8666C351.167 55.2257 350.71 55.4705 350.214 55.5701C349.717 55.6697 349.201 55.6196 348.733 55.4261C348.265 55.2326 347.864 54.9045 347.583 54.4833C347.301 54.0621 347.15 53.5668 347.15 53.06C347.153 52.3836 347.422 51.7355 347.9 51.2562C348.377 50.777 349.024 50.5053 349.7 50.5ZM351.5 60.91V81.66H347.9V60.91H351.5Z" fill="#9E9C9C"></path> <path d="M367.5 65.71C367.283 65.1093 366.89 64.5877 366.373 64.2131C365.856 63.8385 365.238 63.6284 364.6 63.61C364.273 63.5796 363.944 63.6196 363.634 63.7274C363.324 63.8352 363.042 64.0083 362.805 64.2349C362.567 64.4615 362.382 64.7363 362.26 65.0409C362.139 65.3454 362.084 65.6725 362.1 66C362.1 67.5 363.1 68 365.45 69C368.45 70.25 369.85 71.2 370.65 72.2C371.418 73.142 371.81 74.3357 371.75 75.55C371.75 79.9 368.6 82.35 364.6 82.35C362.978 82.3804 361.391 81.8786 360.082 80.9214C358.772 79.9642 357.813 78.6044 357.35 77.05L360.45 75.75C360.85 76.85 362.05 79.15 364.65 79.15C365.094 79.1751 365.539 79.1076 365.956 78.952C366.373 78.7963 366.754 78.5559 367.073 78.2457C367.393 77.9356 367.645 77.5626 367.813 77.1502C367.981 76.7379 368.061 76.2952 368.05 75.85C368.05 73.85 366.65 73.25 364.7 72.4C362.2 71.3 360.6 70.5 359.65 69.4C358.971 68.5333 358.634 67.4486 358.7 66.35C358.7 62.7 361.25 60.55 364.75 60.55C365.968 60.5222 367.166 60.8661 368.185 61.536C369.203 62.2059 369.993 63.17 370.45 64.3L367.5 65.71Z" fill="#9E9C9C"></path> <path d="M377.2 45.2H380.8V63.31C381.494 62.3932 382.395 61.6529 383.429 61.149C384.462 60.6452 385.6 60.392 386.75 60.41C387.9 60.3593 389.044 60.5929 390.082 61.09C391.12 61.5871 392.019 62.3324 392.7 63.2599C393.75 64.8099 393.9 66.5099 393.9 68.8099V81.66H390.3V68.91C390.41 67.5733 390.076 66.2377 389.35 65.11C388.943 64.608 388.423 64.2101 387.831 63.9492C387.24 63.6884 386.595 63.5721 385.95 63.61C385.26 63.5815 384.573 63.7108 383.94 63.988C383.308 64.2653 382.747 64.6832 382.3 65.2099C380.9 66.8599 380.8 69.3099 380.8 70.8099V81.66H377.2V45.2Z" fill="#9E9C9C"></path> <path d="M403.15 50.5C403.656 50.498 404.152 50.6465 404.575 50.9266C404.997 51.2067 405.327 51.6058 405.522 52.0734C405.717 52.541 405.769 53.056 405.672 53.5533C405.574 54.0505 405.331 54.5076 404.973 54.8666C404.616 55.2257 404.16 55.4705 403.663 55.5701C403.166 55.6697 402.651 55.6196 402.182 55.4261C401.714 55.2326 401.313 54.9045 401.032 54.4833C400.75 54.0621 400.6 53.5668 400.6 53.06C400.602 52.3836 400.871 51.7355 401.349 51.2562C401.826 50.777 402.473 50.5053 403.15 50.5V50.5ZM405 60.91V81.66H401.4V60.91H405Z" fill="#9E9C9C"></path> <path d="M412.4 60.91H416V63.31C416.695 62.3932 417.595 61.6529 418.629 61.149C419.663 60.6452 420.801 60.392 421.95 60.41C423.1 60.3594 424.244 60.5929 425.282 61.0901C426.32 61.5872 427.219 62.3325 427.9 63.26C428.95 64.81 429.1 66.51 429.1 68.81V81.66H425.5V68.91C425.61 67.5733 425.276 66.2378 424.55 65.11C424.143 64.608 423.623 64.2101 423.032 63.9493C422.44 63.6884 421.795 63.5721 421.15 63.61C420.46 63.5815 419.773 63.7108 419.14 63.9881C418.508 64.2653 417.947 64.6832 417.5 65.21C416.1 66.86 416 69.31 416 70.81V81.66H412.4V60.91Z" fill="#9E9C9C"></path> <path d="M452.45 60.9099H456.05V81.1599C456.05 83.4099 456.05 86.6099 454.05 89.3099C453.068 90.5602 451.804 91.5607 450.362 92.2298C448.92 92.8989 447.339 93.2176 445.75 93.1599C444.393 93.2051 443.04 92.981 441.77 92.5004C440.5 92.0198 439.338 91.2923 438.35 90.3599C437.479 89.478 436.791 88.4315 436.327 87.2812C435.864 86.131 435.634 84.9 435.65 83.6599H439.2C439.196 85.2396 439.765 86.7673 440.8 87.9599C441.44 88.635 442.218 89.1633 443.081 89.5086C443.944 89.8539 444.872 90.0079 445.8 89.9599C446.898 90.046 447.997 89.8193 448.97 89.306C449.944 88.7927 450.752 88.0139 451.3 87.0599C452.183 85.4395 452.582 83.6002 452.45 81.7599V78.7599C451.625 79.8603 450.552 80.7506 449.319 81.3587C448.085 81.9668 446.726 82.2756 445.35 82.2599C444.041 82.284 442.739 82.0491 441.521 81.5685C440.303 81.088 439.191 80.3714 438.25 79.4599C437.229 78.3624 436.437 77.0714 435.922 75.6632C435.406 74.2549 435.178 72.7578 435.25 71.2599C435.178 69.7848 435.406 68.3103 435.922 66.9263C436.438 65.5423 437.23 64.2779 438.25 63.2099C440.167 61.3957 442.711 60.3924 445.35 60.4099C446.723 60.3788 448.083 60.6755 449.318 61.2756C450.553 61.8756 451.627 62.7616 452.45 63.8599V60.9099ZM441.05 65.5599C440.342 66.3245 439.791 67.2217 439.431 68.2C439.07 69.1783 438.907 70.2183 438.95 71.2599C438.891 72.3849 439.069 73.5097 439.474 74.5609C439.879 75.6121 440.501 76.5659 441.3 77.3599C442.503 78.489 444.101 79.0997 445.75 79.0599C446.588 79.0943 447.424 78.9568 448.207 78.6559C448.989 78.3549 449.702 77.8968 450.3 77.3099C451.067 76.5134 451.67 75.5735 452.073 74.5439C452.476 73.5144 452.672 72.4154 452.65 71.3099C452.718 69.146 451.927 67.043 450.45 65.4599C449.188 64.2491 447.499 63.5845 445.75 63.6099C444.876 63.5981 444.007 63.7649 443.199 64.1002C442.391 64.4355 441.66 64.9322 441.05 65.5599V65.5599Z" fill="#9E9C9C"></path> </g> <path d="M810.585 231H797.124V232.426C801.334 232.426 802.011 233.327 802.011 238.657V248.267C802.011 253.598 801.335 254.574 797.124 254.574C793.891 254.124 791.71 252.396 788.702 249.093L785.243 245.34C789.905 244.513 792.386 241.586 792.386 238.282C792.386 234.153 788.853 231 782.235 231H769V232.426C773.21 232.426 773.887 233.327 773.887 238.657V248.267C773.887 253.598 773.21 254.574 769 254.574V256H783.964V254.574C779.754 254.574 779.077 253.598 779.077 248.267V245.565H780.355L788.702 256H810.585C821.337 256 826 250.295 826 243.462C826 236.63 821.338 231 810.585 231ZM779.077 243.236V233.253H782.16C785.543 233.253 787.048 235.58 787.048 238.282C787.048 240.91 785.543 243.237 782.16 243.237H779.077V243.236ZM810.811 253.673H810.284C807.577 253.673 807.201 252.998 807.201 249.544V233.253C807.201 233.253 810.51 233.253 810.811 233.253C818.631 233.253 820.059 238.958 820.059 243.387C820.059 247.967 818.63 253.673 810.811 253.673Z" fill="#9E9C9C"></path> <path d="M726.808 245.667L731.947 230.253C733.436 225.796 732.766 224.512 728 224.512V223H742V224.512C737.309 224.512 736.192 225.645 734.33 231.16L725.84 257H724.872L717.276 233.351L709.532 257H708.564L700.298 231.16C698.511 225.645 697.319 224.512 693 224.512V223H709.532V224.512C705.138 224.512 703.946 225.569 705.51 230.253L710.5 245.667L718.021 223H719.436L726.808 245.667Z" fill="#9E9C9C"></path> <path d="M752.5 257C744.525 257 738 250.909 738 243.462C738 236.092 744.526 230 752.5 230C760.475 230 767 236.092 767 243.462C767 250.909 760.475 257 752.5 257ZM752.5 232.333C745.831 232.333 743.51 238.574 743.51 243.463C743.51 248.427 745.831 254.594 752.5 254.594C759.243 254.594 761.563 248.427 761.563 243.463C761.563 238.574 759.243 232.333 752.5 232.333Z" fill="#9E9C9C"></path> <path d="M843.847 254.476V256H827V254.476C831.929 254.476 832.812 253.181 832.812 245.559V233.366C832.812 225.744 831.929 224.525 827 224.525V223H842.228C849.805 223 854 227.039 854 232.451C854 237.71 849.805 241.825 842.228 241.825H838.035V245.558C838.035 253.181 838.917 254.476 843.847 254.476ZM842.228 225.744H838.035V239.005H842.228C846.348 239.005 848.261 236.033 848.261 232.451C848.261 228.793 846.348 225.744 842.228 225.744Z" fill="#9E9C9C"></path> <path d="M905.872 248.943L905.497 250.294C904.821 252.772 903.994 253.673 898.661 253.673H897.609C893.704 253.673 893.028 252.772 893.028 247.442V243.989C898.887 243.989 899.338 244.513 899.338 248.418H900.765V237.231H899.338C899.338 241.135 898.887 241.66 893.028 241.66V233.253H897.158C902.492 233.253 903.318 234.153 903.994 236.631L904.37 238.057H905.571L905.046 231H882.963V232.426C887.168 232.426 887.845 233.327 887.845 238.657V248.267C887.845 253.144 887.271 254.372 883.955 254.547C880.803 254.066 878.639 252.348 875.678 249.093L872.223 245.34C876.88 244.513 879.359 241.586 879.359 238.282C879.359 234.153 875.829 231 869.219 231H856V232.426C860.206 232.426 860.882 233.327 860.882 238.657V248.267C860.882 253.598 860.206 254.574 856 254.574V256H870.947V254.574C866.742 254.574 866.065 253.598 866.065 248.267V245.565H867.342L875.679 256H906.549L907 248.944H905.872V248.943ZM866.064 243.236V233.253H869.143C872.524 233.253 874.026 235.58 874.026 238.282C874.026 240.91 872.524 243.237 869.143 243.237H866.064V243.236Z" fill="#9E9C9C"></path> <path d="M918.603 256C915.85 256 913.441 254.538 912.409 253.632C912.065 253.981 911.445 255.025 911.308 256H910V246.391H911.377C911.928 250.987 915.093 253.702 919.154 253.702C921.357 253.702 923.146 252.449 923.146 250.36C923.146 248.55 921.563 247.157 918.741 245.834L914.818 243.954C912.064 242.63 910 240.332 910 237.268C910 233.926 913.097 231.071 917.365 231.071C919.636 231.071 921.563 231.907 922.734 232.881C923.077 232.603 923.422 231.836 923.629 231H924.936V239.218H923.491C923.008 235.945 921.219 233.229 917.572 233.229C915.645 233.229 913.854 234.343 913.854 236.085C913.854 237.895 915.3 238.87 918.604 240.402L922.389 242.282C925.693 243.884 927 246.461 927 248.55C927 252.937 923.215 256 918.603 256Z" fill="#9E9C9C"></path> <path d="M940.11 256C937.195 256 934.643 254.538 933.551 253.632C933.187 253.981 932.531 255.025 932.386 256H931.001V246.391H932.458C933.041 250.987 936.393 253.702 940.693 253.702C943.025 253.702 944.92 252.449 944.92 250.36C944.92 248.55 943.244 247.157 940.256 245.834L936.102 243.954C933.187 242.63 931 240.332 931 237.268C931 233.926 934.28 231.071 938.798 231.071C941.203 231.071 943.243 231.907 944.483 232.881C944.847 232.603 945.211 231.836 945.429 231H946.814V239.218H945.284C944.774 235.945 942.879 233.229 939.017 233.229C936.977 233.229 935.081 234.343 935.081 236.085C935.081 237.895 936.612 238.87 940.11 240.402L944.118 242.282C947.616 243.884 949 246.461 949 248.55C949 252.937 944.992 256 940.11 256Z" fill="#9E9C9C"></path> <path d="M558.74 237.498C558.74 258.381 570.874 276.428 588.469 284.981L563.307 216.027C560.38 222.589 558.74 229.85 558.74 237.498Z" fill="#9E9C9C"></path> <path d="M647.098 234.836C647.098 228.316 644.756 223.8 642.748 220.286C640.074 215.94 637.568 212.26 637.568 207.914C637.568 203.064 641.245 198.549 646.426 198.549C646.659 198.549 646.881 198.579 647.109 198.592C637.724 189.992 625.221 184.742 611.489 184.742C593.061 184.742 576.848 194.199 567.416 208.522C568.654 208.559 569.82 208.585 570.811 208.585C576.328 208.585 584.868 207.916 584.868 207.916C587.712 207.748 588.047 211.925 585.207 212.262C585.207 212.262 582.349 212.598 579.169 212.765L598.378 269.911L609.922 235.284L601.704 212.763C598.863 212.596 596.172 212.26 596.172 212.26C593.33 212.093 593.663 207.746 596.505 207.914C596.505 207.914 605.216 208.583 610.4 208.583C615.916 208.583 624.458 207.914 624.458 207.914C627.303 207.746 627.637 211.923 624.796 212.26C624.796 212.26 621.932 212.596 618.758 212.763L637.821 269.477L643.082 251.891C645.363 244.594 647.098 239.353 647.098 234.836Z" fill="#9E9C9C"></path> <path d="M612.414 242.113L596.588 288.111C601.313 289.5 606.311 290.26 611.489 290.26C617.632 290.26 623.522 289.198 629.006 287.27C628.864 287.044 628.736 286.804 628.63 286.543L612.414 242.113Z" fill="#9E9C9C"></path> <path d="M657.774 212.186C658.001 213.867 658.129 215.671 658.129 217.611C658.129 222.965 657.129 228.983 654.118 236.509L638.006 283.102C653.688 273.956 664.236 256.963 664.236 237.499C664.237 228.327 661.894 219.701 657.774 212.186Z" fill="#9E9C9C"></path> <path d="M611.489 176C577.585 176 550 203.588 550 237.498C550 271.413 577.585 299 611.489 299C645.392 299 672.981 271.413 672.981 237.498C672.98 203.588 645.392 176 611.489 176ZM611.489 296.181C579.14 296.181 552.819 269.856 552.819 237.498C552.819 205.143 579.139 178.82 611.489 178.82C643.837 178.82 670.155 205.143 670.155 237.498C670.155 269.856 643.837 296.181 611.489 296.181Z" fill="#9E9C9C"></path> <path d="M759.716 99.6592V92.1761H763.443V99.6592H759.716ZM797.841 73.8979C797.726 72.2981 797.269 70.8127 796.58 69.5561C795.891 68.2996 794.976 67.2719 793.828 66.4148C792.649 65.5288 791.304 64.8878 789.871 64.5299C788.32 64.1137 786.72 63.9025 785.113 63.9017C782.972 63.8897 780.856 64.3582 778.922 65.2726C777.142 66.141 775.605 67.4363 774.45 69.0423C773.245 70.5838 772.329 72.4103 771.698 74.4117C771.068 76.4131 770.782 78.4664 770.782 80.6383C770.782 83.1514 771.068 85.4356 771.642 87.5493C772.214 89.6651 773.133 91.5478 774.335 93.0915C775.535 94.6257 777.063 95.8744 778.808 96.7467C780.643 97.6038 782.764 98.0615 785.113 98.0615C786.89 98.0615 788.495 97.7744 789.93 97.2044C791.421 96.6323 792.738 95.8334 793.884 94.8057C795.031 93.778 796.008 92.5776 796.695 91.1484C797.382 89.7191 797.899 88.1214 798.185 86.4633H800.937C800.683 88.5365 800.062 90.5482 799.102 92.4049C798.228 94.0798 797.041 95.5731 795.605 96.805C794.228 98.0106 792.632 98.9414 790.903 99.5469C789.126 100.173 787.234 100.46 785.228 100.46C782.134 100.46 779.551 99.888 777.373 98.8625C775.196 97.7182 773.419 96.3473 772.043 94.4625C770.667 92.6338 769.635 90.5201 768.946 88.1214C768.302 85.6789 767.974 83.164 767.971 80.6383C767.971 78.0691 768.316 75.5538 769.12 73.2113C769.863 70.9271 770.953 68.8717 772.444 67.1575C773.934 65.4432 775.655 64.0139 777.833 63.0445C779.956 62.0147 782.42 61.5009 785.228 61.5009C787.234 61.5009 789.184 61.788 790.905 62.2436C792.682 62.7574 794.285 63.5001 795.607 64.5299C796.994 65.5512 798.146 66.8554 798.987 68.3557C799.847 69.8994 800.363 71.7259 800.593 73.8979H797.899H797.841ZM805.007 81.0377C805.007 78.3541 805.353 75.8388 806.155 73.5546C806.9 71.2704 807.988 69.1567 809.479 67.328C810.938 65.5236 812.778 64.0612 814.868 63.0445C816.991 62.0147 819.455 61.5009 822.263 61.5009C825.015 61.5009 827.481 62.0147 829.658 63.0445C831.761 64.0418 833.606 65.5074 835.049 67.328C836.538 69.1567 837.572 71.1559 838.373 73.5546C839.119 75.9533 839.522 78.3541 839.522 81.0377C839.522 83.7235 839.175 86.2366 838.373 88.5792C837.685 90.8516 836.556 92.9672 835.049 94.8057C833.585 96.5761 831.743 98.0001 829.658 98.9748C827.539 100.002 825.073 100.516 822.263 100.516C819.511 100.516 817.048 100.002 814.868 98.9748C812.796 97.9806 810.959 96.5596 809.479 94.8057C808.047 93.0915 806.9 90.9778 806.155 88.5792C805.353 86.2366 805.007 83.6652 805.007 81.0377ZM807.702 81.0377C807.702 83.2658 807.988 85.3773 808.619 87.4932C809.22 89.4442 810.151 91.279 811.37 92.9188C812.566 94.4875 814.093 95.7751 815.843 96.6906C817.678 97.6038 819.685 98.0615 822.036 98.0615C824.177 98.08 826.294 97.6111 828.226 96.6906C829.995 95.8033 831.528 94.5107 832.698 92.9188C833.918 91.279 834.849 89.4442 835.45 87.4932C836.079 85.4939 836.367 83.322 836.367 81.0377C836.367 78.7535 836.022 76.6981 835.45 74.5823C834.82 72.5831 833.901 70.7565 832.698 69.1567C831.496 67.5569 829.947 66.3003 828.226 65.3849C826.391 64.4717 824.384 64.0139 822.036 64.0139C819.893 63.9951 817.775 64.4641 815.843 65.3849C814.074 66.2721 812.541 67.5648 811.37 69.1567C810.151 70.7965 809.22 72.6312 808.619 74.5823C808.047 76.6981 807.702 78.8096 807.702 81.0377V81.0377ZM845.197 62.4163H847.948V70.0138H848.063C848.339 68.8129 848.866 67.6836 849.61 66.6997C850.297 65.6721 851.214 64.7566 852.306 63.9578C853.375 63.1809 854.552 62.5647 855.801 62.1291C857.119 61.7176 858.491 61.5066 859.872 61.503C861.708 61.503 863.255 61.7297 864.516 62.1874C865.836 62.7013 866.982 63.2151 867.898 64.0139C868.815 64.8128 869.56 65.6138 870.078 66.5292C870.65 67.4425 870.995 68.414 871.224 69.3856H871.339C872.485 66.8142 873.918 64.8149 875.809 63.5001C877.703 62.1874 880.167 61.5009 883.207 61.5009C884.869 61.5009 886.531 61.788 887.909 62.2436C889.283 62.7574 890.602 63.5001 891.634 64.5299C892.665 65.5598 893.469 66.9264 894.099 68.4701C894.671 70.07 894.96 71.9548 894.96 74.1267V99.4886H892.147V73.954C892.147 71.5554 891.803 69.785 890.999 68.3557C890.312 67.043 889.395 65.9592 888.42 65.2726C887.445 64.5861 886.47 64.1284 885.382 63.9578C884.407 63.8434 883.606 63.6728 883.09 63.6728C881.426 63.6728 879.764 63.9578 878.388 64.5299C876.982 65.1233 875.714 65.9978 874.661 67.0992C873.63 68.2996 872.828 69.6684 872.197 71.4409C871.623 73.2113 871.337 75.1544 871.337 77.3242V99.4886H868.585V73.954C868.585 71.6698 868.239 69.785 867.552 68.414C866.865 67.043 866.005 66.0153 865.088 65.3288C864.169 64.6444 863.196 64.1845 862.163 64.0139C861.375 63.8257 860.568 63.7301 859.758 63.729C858.436 63.729 857.062 64.0139 855.684 64.4717C854.31 65.0438 852.991 65.7865 851.844 66.9286C850.696 68.0707 849.721 69.4417 849.034 71.2121C848.347 72.9825 847.888 74.9817 847.888 77.3825V99.4908H845.136V62.2997H845.194L845.197 62.4163Z" fill="#9E9C9C"></path> <path d="M667.529 24.0291C663.516 26.1427 662.084 29.6274 662.084 39.2803C662.084 39.2803 664.09 37.3372 667.072 36.2534C669.25 35.5107 671.085 34.3103 672.173 33.5114C675.555 31.0545 676.014 27.911 676.014 22.5998C676.014 22.5998 670.511 22.4271 667.529 24.0291V24.0291Z" fill="#9E9C9C"></path> <path d="M644.026 26.3133C640.814 29.1697 639.839 33.682 639.839 33.682L629.062 74.9256L620.175 41.109C619.315 37.5682 617.71 33.0559 615.244 30.0829C612.15 26.3133 605.786 26.0844 605.097 26.0844C604.408 26.0844 597.989 26.3133 594.835 30.1412C592.369 33.1681 590.765 37.6243 589.905 41.1651L581.019 74.9817L570.354 33.682C570.354 33.682 569.437 29.1114 566.172 26.3133C560.896 21.6865 553.041 22.6581 553.041 22.6581L573.509 100C573.509 100 580.274 100.514 583.656 98.7438C588.07 96.5157 590.247 94.7453 592.943 84.1769C595.35 74.809 602.059 47.2751 602.689 45.2759C602.975 44.3043 603.376 41.9639 605.097 41.9639C606.873 41.9639 607.22 44.2482 607.504 45.2759C608.134 47.219 614.784 74.8111 617.25 84.1769C619.946 94.6891 622.067 96.4012 626.539 98.7438C629.92 100.514 636.687 100 636.687 100L657.152 22.7142C657.152 22.7142 649.3 21.7427 644.026 26.3133ZM676.014 35.2818C676.014 35.2818 674.753 37.2249 671.83 38.937C669.938 39.9669 668.16 40.7074 666.212 41.6228C663 43.1644 662.084 44.9347 662.084 47.5623V100.005C662.084 100.005 667.299 100.631 670.625 98.9748C674.981 96.7467 675.956 94.6352 676.014 84.9801V35.2818ZM727.153 61.5008L753.125 22.8848C753.125 22.8848 742.174 21 736.728 25.9722C733.231 29.1114 729.331 34.768 729.331 34.768L719.814 48.5921C719.299 49.2765 718.783 50.0775 717.808 50.0775C716.833 50.0775 716.204 49.3348 715.801 48.5921L706.17 34.8241C706.17 34.8241 702.33 29.1675 698.774 26.0283C693.386 21.0583 682.378 22.9409 682.378 22.9409L708.406 61.4447L682.378 99.888C682.378 99.888 693.845 101.373 699.234 96.4034C702.731 93.262 706.113 88.0631 706.113 88.0631L715.63 74.2973C716.146 73.6107 716.661 72.8119 717.637 72.8119C718.612 72.8119 719.24 73.5546 719.643 74.2973L729.16 88.0631C729.16 88.0631 732.713 93.1476 736.154 96.4034C741.543 101.373 752.839 99.888 752.839 99.888L727.153 61.5008Z" fill="#9E9C9C"></path> <g clip-path="url(#clip1_629_68)"> <path d="M81.6683 228.008C83.068 231.78 86.2958 233.661 91.3522 233.652C92.7794 233.731 94.2067 233.502 95.5378 232.981C96.8689 232.46 98.0728 231.659 99.0679 230.633L108.752 236.212C104.772 241.752 98.9104 244.522 91.1686 244.522C84.3801 244.522 78.9607 242.505 74.9105 238.47C72.9038 236.481 71.3279 234.101 70.2804 231.477C69.233 228.852 68.7365 226.04 68.8219 223.216C68.7372 220.382 69.2355 217.56 70.2858 214.926C71.3361 212.293 72.9159 209.903 74.9276 207.905C76.9391 205.908 79.3394 204.345 81.9798 203.313C84.6199 202.282 87.4437 201.804 90.2763 201.91C93.0082 201.837 95.7246 202.342 98.2481 203.392C100.772 204.442 103.045 206.012 104.92 208.001C106.855 210.022 108.369 212.409 109.374 215.021C110.379 217.633 110.854 220.418 110.773 223.216C110.774 224.826 110.612 226.431 110.287 228.008H81.6683ZM81.432 218.963H98.7268C97.5458 214.709 94.6852 212.583 90.1713 212.583C85.6573 212.583 82.5868 214.762 81.4058 219.015L81.432 218.963Z" fill="#9E9C9C"></path> <path d="M144.654 203.065H156.752V243.393H144.654V239.599C141.793 242.881 137.787 244.522 132.634 244.522C130.051 244.543 127.493 244.002 125.139 242.937C122.785 241.871 120.69 240.307 119 238.352C115.229 234.228 113.202 228.803 113.345 223.216C113.202 217.628 115.229 212.203 119 208.08C120.689 206.123 122.783 204.557 125.138 203.491C127.492 202.426 130.05 201.886 132.634 201.91C137.787 201.91 141.793 203.551 144.654 206.832V203.065ZM128.146 230.396C130.052 232.112 132.525 233.06 135.088 233.06C137.651 233.06 140.124 232.112 142.029 230.396C142.93 229.439 143.626 228.31 144.078 227.075C144.529 225.841 144.725 224.528 144.654 223.216C144.725 221.903 144.53 220.59 144.079 219.356C143.627 218.121 142.93 216.992 142.029 216.035C140.124 214.32 137.651 213.371 135.088 213.371C132.525 213.371 130.052 214.32 128.146 216.035C127.245 216.991 126.547 218.121 126.096 219.355C125.645 220.59 125.45 221.903 125.522 223.216C125.451 224.528 125.647 225.841 126.098 227.075C126.55 228.31 127.246 229.439 128.146 230.396Z" fill="#9E9C9C"></path> <path d="M194.19 243.393V203.065H206.327V243.393H194.19Z" fill="#9E9C9C"></path> <path d="M238.148 203.065H250.246V243.393H238.148V239.599C235.724 242.881 231.88 244.522 226.613 244.522C224.609 244.572 222.615 244.203 220.76 243.439C218.905 242.675 217.229 241.533 215.84 240.085C212.998 237.118 211.575 233.027 211.575 227.81V203.065H223.675V226.038C223.608 227.034 223.749 228.033 224.091 228.972C224.431 229.91 224.965 230.766 225.656 231.486C226.328 232.119 227.122 232.612 227.985 232.937C228.851 233.261 229.772 233.411 230.694 233.377C231.704 233.429 232.712 233.271 233.658 232.911C234.602 232.552 235.461 231.999 236.18 231.289C237.643 229.56 238.369 227.326 238.2 225.067L238.148 203.065Z" fill="#9E9C9C"></path> <path d="M300.66 201.91C302.735 201.823 304.804 202.184 306.728 202.97C308.65 203.757 310.381 204.949 311.8 206.465C314.712 209.821 316.215 214.17 316 218.608V243.393H303.889V219.658C303.964 217.941 303.441 216.252 302.406 214.88C301.867 214.277 301.198 213.804 300.45 213.497C299.702 213.19 298.895 213.057 298.089 213.108C297.21 213.06 296.333 213.218 295.527 213.569C294.721 213.92 294.006 214.454 293.443 215.129C292.258 216.734 291.673 218.704 291.791 220.695V243.393H279.677V219.658C279.76 217.941 279.235 216.249 278.195 214.88C277.658 214.276 276.989 213.803 276.241 213.496C275.493 213.189 274.686 213.056 273.878 213.108C273.019 213.063 272.16 213.217 271.368 213.556C270.577 213.895 269.874 214.411 269.312 215.064C268.128 216.669 267.543 218.638 267.658 220.63V243.393H255.547V203.065H267.658V206.78C269.862 203.551 273.458 201.936 278.472 201.936C280.533 201.827 282.587 202.261 284.429 203.193C286.271 204.126 287.836 205.526 288.968 207.253C291.435 203.682 295.346 201.91 300.66 201.91Z" fill="#9E9C9C"></path> <path d="M188.954 203.039H181.54V194.244H169.44V203.039H162.027V214.841H169.44V243.393H181.54V214.841H188.954V203.039Z" fill="#9E9C9C"></path> <path d="M11.2563 216.193C11.2312 212.949 12.2598 209.784 14.1873 207.174C16.1149 204.565 18.837 202.653 21.9446 201.724C25.0521 200.796 28.3769 200.903 31.4187 202.027C34.4608 203.152 37.0553 205.235 38.8124 207.962C39.2721 208.68 39.6715 209.435 40.0064 210.22C42.5122 206.779 45.6631 203.858 49.2836 201.621C49.1919 201.49 49.1263 201.346 49.0475 201.214C46.4652 197.27 42.9037 194.064 38.7118 191.91C34.5196 189.756 29.8406 188.727 25.1319 188.924C20.4234 189.122 15.8465 190.538 11.8492 193.036C7.85179 195.533 4.57078 199.025 2.327 203.171C0.0832476 207.317 -1.04642 211.975 -0.951507 216.689C-0.856591 221.403 0.459663 226.011 2.8685 230.063C5.27735 234.116 8.69631 237.473 12.791 239.807C16.8856 242.142 21.5158 243.373 26.2285 243.38H33.7342V231.119H26.2285C22.2677 231.115 18.4694 229.543 15.6639 226.746C12.8583 223.95 11.2736 220.155 11.2563 216.193Z" fill="#9E9C9C"></path> <path d="M51.2257 243.393H38.9697V229.215C38.9732 221.986 41.8408 215.053 46.9445 209.934C52.0481 204.816 58.9716 201.931 66.1978 201.91V214.237C62.228 214.24 58.4218 215.819 55.6147 218.628C52.8077 221.436 51.2291 225.244 51.2257 229.215V243.393Z" fill="#9E9C9C"></path> <path d="M200.238 200.413C204.216 200.413 207.442 197.187 207.442 193.206C207.442 189.226 204.216 185.999 200.238 185.999C196.26 185.999 193.034 189.226 193.034 193.206C193.034 197.187 196.26 200.413 200.238 200.413Z" fill="#9E9C9C"></path> <path d="M12.5859 276.745V263.119H15.2141V268.608H16.557L20.6049 263.119H23.5592L18.6096 269.721L23.9428 276.745H20.7391L16.5186 271.007H15.2141V276.745H12.5859ZM29.4928 276.937C28.6743 276.937 27.9388 276.803 27.2866 276.534C26.6343 276.253 26.0779 275.869 25.6175 275.383C25.17 274.896 24.8247 274.34 24.5817 273.713C24.3386 273.086 24.2172 272.427 24.2172 271.736C24.2172 271.032 24.3386 270.367 24.5817 269.74C24.8247 269.113 25.17 268.556 25.6175 268.07C26.0779 267.584 26.6343 267.207 27.2866 266.938C27.9388 266.656 28.6743 266.516 29.4928 266.516C30.3113 266.516 31.0402 266.656 31.6798 266.938C32.3321 267.207 32.8884 267.584 33.3488 268.07C33.8092 268.556 34.1546 269.113 34.3847 269.74C34.6277 270.367 34.7491 271.032 34.7491 271.736C34.7491 272.427 34.6277 273.086 34.3847 273.713C34.1546 274.34 33.8092 274.896 33.3488 275.383C32.9011 275.869 32.3512 276.253 31.6989 276.534C31.0466 276.803 30.3113 276.937 29.4928 276.937ZM26.8646 271.736C26.8646 272.325 26.9796 272.849 27.2099 273.31C27.44 273.758 27.7533 274.11 28.1498 274.365C28.5463 274.621 28.994 274.749 29.4928 274.749C29.9787 274.749 30.42 274.621 30.8165 274.365C31.213 274.097 31.5263 273.738 31.7564 273.291C31.9995 272.83 32.1209 272.305 32.1209 271.717C32.1209 271.141 31.9995 270.623 31.7564 270.162C31.5263 269.702 31.213 269.343 30.8165 269.088C30.42 268.832 29.9787 268.704 29.4928 268.704C28.994 268.704 28.5463 268.838 28.1498 269.107C27.7533 269.363 27.44 269.721 27.2099 270.181C26.9796 270.629 26.8646 271.147 26.8646 271.736ZM36.4843 276.745V266.688H39.055V270.527H43.122V266.688H45.6927V276.745H43.122V272.676H39.055V276.745H36.4843ZM52.7244 276.937C51.9057 276.937 51.1704 276.803 50.5181 276.534C49.8658 276.253 49.3095 275.869 48.8491 275.383C48.3887 274.884 48.0306 274.321 47.7748 273.694C47.5318 273.067 47.4104 272.408 47.4104 271.717C47.4104 270.77 47.6213 269.906 48.0433 269.126C48.4783 268.333 49.0921 267.699 49.8851 267.226C50.678 266.752 51.6181 266.516 52.7051 266.516C53.7923 266.516 54.7258 266.752 55.5059 267.226C56.2862 267.699 56.868 268.32 57.2518 269.088L54.7386 269.855C54.5212 269.484 54.2334 269.203 53.8753 269.011C53.5172 268.806 53.1207 268.704 52.686 268.704C52.1999 268.704 51.7522 268.832 51.343 269.088C50.9467 269.331 50.6332 269.682 50.4031 270.143C50.1728 270.591 50.0577 271.116 50.0577 271.717C50.0577 272.305 50.1728 272.83 50.4031 273.291C50.6461 273.738 50.9658 274.097 51.3623 274.365C51.7588 274.621 52.1999 274.749 52.686 274.749C52.9929 274.749 53.2807 274.698 53.5492 274.596C53.8305 274.493 54.0799 274.352 54.2975 274.173C54.5148 273.994 54.6747 273.79 54.777 273.559L57.29 274.327C57.0599 274.826 56.7209 275.274 56.2733 275.67C55.8385 276.067 55.3206 276.38 54.7195 276.611C54.1311 276.828 53.4661 276.937 52.7244 276.937ZM61.1931 276.745V268.934H58.0085V266.688H66.9676V268.934H63.7639V276.745H61.1931ZM74.4315 276.937C73.6512 276.937 72.9607 276.764 72.3596 276.419C71.7712 276.061 71.3108 275.581 70.9784 274.98V280.833H68.4077V266.688H70.6522V268.416C71.0359 267.827 71.522 267.367 72.1102 267.034C72.6986 266.688 73.37 266.516 74.1246 266.516C74.8023 266.516 75.4226 266.65 75.9853 266.919C76.5609 267.187 77.0597 267.565 77.4817 268.051C77.9037 268.525 78.23 269.075 78.4601 269.702C78.7031 270.316 78.8245 270.981 78.8245 271.698C78.8245 272.67 78.6328 273.553 78.2491 274.346C77.8782 275.139 77.3603 275.773 76.6951 276.246C76.043 276.707 75.2884 276.937 74.4315 276.937ZM73.5682 274.749C73.9647 274.749 74.3228 274.666 74.6425 274.5C74.9622 274.333 75.2372 274.11 75.4674 273.828C75.7104 273.534 75.8895 273.207 76.0046 272.849C76.1324 272.478 76.1965 272.094 76.1965 271.698C76.1965 271.275 76.126 270.885 75.9853 270.527C75.8575 270.169 75.6656 269.855 75.4098 269.586C75.1541 269.305 74.8535 269.088 74.5081 268.934C74.1757 268.78 73.8112 268.704 73.4147 268.704C73.1717 268.704 72.9223 268.748 72.6665 268.838C72.4235 268.915 72.187 269.03 71.9567 269.184C71.7266 269.337 71.522 269.516 71.3428 269.721C71.1766 269.926 71.055 270.15 70.9784 270.392V272.753C71.1318 273.124 71.3365 273.463 71.5923 273.77C71.8608 274.077 72.1677 274.321 72.5131 274.5C72.8584 274.666 73.2101 274.749 73.5682 274.749ZM81.7255 281.083C81.4568 281.083 81.1819 281.051 80.9005 280.987C80.6319 280.923 80.3186 280.827 79.9605 280.699L80.4594 278.664C80.6511 278.754 80.8302 278.818 80.9964 278.856C81.1755 278.895 81.3354 278.914 81.4761 278.914C81.7958 278.914 82.0772 278.799 82.3201 278.568C82.5759 278.338 82.7805 277.986 82.934 277.513L83.2409 276.688L79.1739 266.688H81.8406L84.5455 274.116L86.9243 266.688H89.3798L85.2746 278.185C85.057 278.799 84.7694 279.317 84.4113 279.739C84.053 280.174 83.6438 280.507 83.1834 280.737C82.723 280.968 82.2371 281.083 81.7255 281.083ZM90.7766 276.745V266.688H93.3472V270.488H94.2105L96.9346 266.688H99.7355L96.1673 271.544L100.119 276.745H97.184L94.1722 272.753H93.3472V276.745H90.7766ZM104.039 276.745V268.934H100.854V266.688H109.813V268.934H106.609V276.745H104.039ZM115.896 276.937C115.077 276.937 114.342 276.803 113.69 276.534C113.037 276.253 112.481 275.869 112.021 275.383C111.573 274.896 111.228 274.34 110.985 273.713C110.742 273.086 110.62 272.427 110.62 271.736C110.62 271.032 110.742 270.367 110.985 269.74C111.228 269.113 111.573 268.556 112.021 268.07C112.481 267.584 113.037 267.207 113.69 266.938C114.342 266.656 115.077 266.516 115.896 266.516C116.714 266.516 117.443 266.656 118.083 266.938C118.735 267.207 119.291 267.584 119.752 268.07C120.212 268.556 120.558 269.113 120.788 269.74C121.031 270.367 121.152 271.032 121.152 271.736C121.152 272.427 121.031 273.086 120.788 273.713C120.558 274.34 120.212 274.896 119.752 275.383C119.304 275.869 118.754 276.253 118.102 276.534C117.45 276.803 116.714 276.937 115.896 276.937ZM113.268 271.736C113.268 272.325 113.383 272.849 113.613 273.31C113.843 273.758 114.156 274.11 114.553 274.365C114.949 274.621 115.397 274.749 115.896 274.749C116.382 274.749 116.823 274.621 117.219 274.365C117.616 274.097 117.929 273.738 118.16 273.291C118.403 272.83 118.524 272.305 118.524 271.717C118.524 271.141 118.403 270.623 118.16 270.162C117.929 269.702 117.616 269.343 117.219 269.088C116.823 268.832 116.382 268.704 115.896 268.704C115.397 268.704 114.949 268.838 114.553 269.107C114.156 269.363 113.843 269.721 113.613 270.181C113.383 270.629 113.268 271.147 113.268 271.736ZM128.911 276.937C128.131 276.937 127.44 276.764 126.839 276.419C126.251 276.061 125.791 275.581 125.458 274.98V280.833H122.887V266.688H125.132V268.416C125.515 267.827 126.002 267.367 126.59 267.034C127.178 266.688 127.85 266.516 128.604 266.516C129.282 266.516 129.902 266.65 130.465 266.919C131.04 267.187 131.539 267.565 131.961 268.051C132.383 268.525 132.71 269.075 132.94 269.702C133.183 270.316 133.304 270.981 133.304 271.698C133.304 272.67 133.112 273.553 132.729 274.346C132.358 275.139 131.84 275.773 131.175 276.246C130.523 276.707 129.768 276.937 128.911 276.937ZM128.048 274.749C128.444 274.749 128.802 274.666 129.122 274.5C129.442 274.333 129.717 274.11 129.947 273.828C130.19 273.534 130.369 273.207 130.484 272.849C130.612 272.478 130.676 272.094 130.676 271.698C130.676 271.275 130.606 270.885 130.465 270.527C130.337 270.169 130.145 269.855 129.89 269.586C129.634 269.305 129.333 269.088 128.988 268.934C128.655 268.78 128.291 268.704 127.894 268.704C127.651 268.704 127.402 268.748 127.146 268.838C126.903 268.915 126.667 269.03 126.436 269.184C126.206 269.337 126.002 269.516 125.822 269.721C125.656 269.926 125.535 270.15 125.458 270.392V272.753C125.611 273.124 125.816 273.463 126.072 273.77C126.34 274.077 126.647 274.321 126.993 274.5C127.338 274.666 127.69 274.749 128.048 274.749ZM144.336 276.937C143.517 276.937 142.782 276.803 142.129 276.534C141.477 276.253 140.921 275.869 140.46 275.383C140 274.884 139.642 274.321 139.386 273.694C139.143 273.067 139.022 272.408 139.022 271.717C139.022 270.77 139.232 269.906 139.655 269.126C140.089 268.333 140.703 267.699 141.496 267.226C142.289 266.752 143.229 266.516 144.316 266.516C145.403 266.516 146.337 266.752 147.117 267.226C147.897 267.699 148.479 268.32 148.863 269.088L146.35 269.855C146.132 269.484 145.845 269.203 145.487 269.011C145.128 268.806 144.732 268.704 144.297 268.704C143.811 268.704 143.364 268.832 142.954 269.088C142.558 269.331 142.245 269.682 142.014 270.143C141.784 270.591 141.669 271.116 141.669 271.717C141.669 272.305 141.784 272.83 142.014 273.291C142.257 273.738 142.577 274.097 142.973 274.365C143.37 274.621 143.811 274.749 144.297 274.749C144.604 274.749 144.892 274.698 145.16 274.596C145.442 274.493 145.691 274.352 145.909 274.173C146.126 273.994 146.286 273.79 146.388 273.559L148.901 274.327C148.671 274.826 148.332 275.274 147.885 275.67C147.45 276.067 146.932 276.38 146.331 276.611C145.742 276.828 145.077 276.937 144.336 276.937ZM149.792 273.77C149.792 273.118 149.971 272.549 150.33 272.062C150.701 271.563 151.212 271.179 151.864 270.911C152.517 270.642 153.265 270.508 154.109 270.508C154.531 270.508 154.959 270.54 155.394 270.604C155.829 270.668 156.206 270.77 156.526 270.911V270.373C156.526 269.734 156.334 269.241 155.95 268.896C155.58 268.55 155.023 268.377 154.281 268.377C153.732 268.377 153.207 268.473 152.708 268.665C152.21 268.857 151.685 269.139 151.135 269.51L150.31 267.821C150.975 267.386 151.653 267.06 152.344 266.842C153.047 266.624 153.783 266.516 154.55 266.516C155.983 266.516 157.095 266.874 157.888 267.59C158.694 268.307 159.097 269.331 159.097 270.661V273.866C159.097 274.135 159.141 274.327 159.231 274.442C159.333 274.557 159.493 274.628 159.711 274.653V276.745C159.48 276.784 159.269 276.816 159.078 276.841C158.898 276.867 158.745 276.88 158.617 276.88C158.106 276.88 157.715 276.764 157.447 276.534C157.191 276.304 157.031 276.022 156.967 275.69L156.91 275.171C156.475 275.734 155.931 276.169 155.279 276.476C154.627 276.784 153.962 276.937 153.284 276.937C152.619 276.937 152.018 276.803 151.481 276.534C150.956 276.253 150.541 275.875 150.234 275.402C149.94 274.915 149.792 274.372 149.792 273.77ZM156.046 274.289C156.187 274.135 156.302 273.981 156.392 273.828C156.481 273.674 156.526 273.534 156.526 273.406V272.389C156.219 272.261 155.887 272.165 155.528 272.101C155.17 272.024 154.831 271.986 154.512 271.986C153.847 271.986 153.297 272.133 152.862 272.427C152.44 272.708 152.229 273.086 152.229 273.559C152.229 273.815 152.299 274.058 152.44 274.289C152.581 274.519 152.785 274.704 153.054 274.845C153.322 274.986 153.642 275.056 154.013 275.056C154.397 275.056 154.774 274.986 155.145 274.845C155.516 274.692 155.816 274.506 156.046 274.289ZM161.499 276.745V266.708H164.07V273.31L168.578 266.688H170.918V276.745H168.348V270.297L163.897 276.745H161.499ZM166.218 265.748C165.233 265.748 164.46 265.499 163.897 265C163.334 264.488 163.053 263.835 163.053 263.042H164.645C164.645 263.426 164.773 263.746 165.029 264.001C165.285 264.258 165.681 264.385 166.218 264.385C166.755 264.385 167.139 264.264 167.369 264.021C167.612 263.778 167.759 263.451 167.81 263.042H169.403C169.403 263.835 169.121 264.488 168.558 265C167.996 265.499 167.216 265.748 166.218 265.748ZM175.586 276.745V268.934H172.4V266.688H181.36V268.934H178.157V276.745H175.586ZM187.442 276.937C186.623 276.937 185.889 276.803 185.236 276.534C184.584 276.253 184.027 275.869 183.568 275.383C183.12 274.896 182.774 274.34 182.531 273.713C182.288 273.086 182.167 272.427 182.167 271.736C182.167 271.032 182.288 270.367 182.531 269.74C182.774 269.113 183.12 268.556 183.568 268.07C184.027 267.584 184.584 267.207 185.236 266.938C185.889 266.656 186.623 266.516 187.442 266.516C188.26 266.516 188.99 266.656 189.629 266.938C190.282 267.207 190.838 267.584 191.298 268.07C191.759 268.556 192.105 269.113 192.335 269.74C192.578 270.367 192.698 271.032 192.698 271.736C192.698 272.427 192.578 273.086 192.335 273.713C192.105 274.34 191.759 274.896 191.298 275.383C190.85 275.869 190.302 276.253 189.649 276.534C188.997 276.803 188.26 276.937 187.442 276.937ZM184.814 271.736C184.814 272.325 184.929 272.849 185.159 273.31C185.389 273.758 185.703 274.11 186.1 274.365C186.496 274.621 186.944 274.749 187.442 274.749C187.928 274.749 188.37 274.621 188.765 274.365C189.163 274.097 189.477 273.738 189.706 273.291C189.949 272.83 190.07 272.305 190.07 271.717C190.07 271.141 189.949 270.623 189.706 270.162C189.477 269.702 189.163 269.343 188.765 269.088C188.37 268.832 187.928 268.704 187.442 268.704C186.944 268.704 186.496 268.838 186.1 269.107C185.703 269.363 185.389 269.721 185.159 270.181C184.929 270.629 184.814 271.147 184.814 271.736ZM194.434 276.745V266.688H200.036C200.726 266.688 201.283 266.804 201.705 267.034C202.14 267.264 202.46 267.565 202.665 267.936C202.869 268.307 202.972 268.704 202.972 269.126C202.972 269.689 202.843 270.181 202.588 270.604C202.344 271.026 201.96 271.352 201.437 271.583C202.024 271.749 202.504 272.037 202.874 272.446C203.245 272.843 203.431 273.367 203.431 274.02C203.431 274.647 203.284 275.165 202.99 275.574C202.697 275.971 202.274 276.265 201.724 276.457C201.174 276.649 200.521 276.745 199.766 276.745H194.434ZM196.87 274.999H199.691C199.921 274.999 200.132 274.941 200.323 274.826C200.514 274.711 200.662 274.557 200.764 274.365C200.88 274.173 200.937 273.962 200.937 273.732C200.937 273.489 200.887 273.278 200.785 273.099C200.682 272.907 200.535 272.76 200.343 272.657C200.164 272.542 199.953 272.485 199.709 272.485H196.87V274.999ZM196.87 270.872H199.384C199.614 270.872 199.818 270.815 199.998 270.7C200.176 270.584 200.31 270.431 200.4 270.239C200.503 270.047 200.553 269.836 200.553 269.606C200.553 269.273 200.446 268.998 200.228 268.78C200.023 268.55 199.748 268.435 199.402 268.435H196.87V270.872ZM210.196 276.745V263.119H212.824V268.608H214.167L218.214 263.119H221.17L216.22 269.721L221.554 276.745H218.35L214.129 271.007H212.824V276.745H210.196ZM229.14 276.937C228.36 276.937 227.669 276.764 227.069 276.419C226.48 276.061 226.019 275.581 225.687 274.98V280.833H223.117V266.688H225.361V268.416C225.745 267.827 226.23 267.367 226.819 267.034C227.407 266.688 228.078 266.516 228.833 266.516C229.511 266.516 230.131 266.65 230.693 266.919C231.27 267.187 231.768 267.565 232.191 268.051C232.612 268.525 232.939 269.075 233.169 269.702C233.412 270.316 233.533 270.981 233.533 271.698C233.533 272.67 233.342 273.553 232.957 274.346C232.587 275.139 232.069 275.773 231.404 276.246C230.752 276.707 229.997 276.937 229.14 276.937ZM228.276 274.749C228.674 274.749 229.031 274.666 229.351 274.5C229.67 274.333 229.945 274.11 230.177 273.828C230.42 273.534 230.598 273.207 230.713 272.849C230.841 272.478 230.905 272.094 230.905 271.698C230.905 271.275 230.834 270.885 230.693 270.527C230.566 270.169 230.375 269.855 230.118 269.586C229.863 269.305 229.563 269.088 229.217 268.934C228.885 268.78 228.519 268.704 228.124 268.704C227.88 268.704 227.631 268.748 227.376 268.838C227.132 268.915 226.896 269.03 226.666 269.184C226.435 269.337 226.23 269.516 226.052 269.721C225.885 269.926 225.764 270.15 225.687 270.392V272.753C225.841 273.124 226.046 273.463 226.301 273.77C226.569 274.077 226.876 274.321 227.221 274.5C227.567 274.666 227.919 274.749 228.276 274.749ZM239.937 276.937C239.131 276.937 238.402 276.803 237.749 276.534C237.097 276.253 236.542 275.875 236.081 275.402C235.621 274.915 235.262 274.365 235.007 273.751C234.764 273.124 234.641 272.465 234.641 271.774C234.641 270.815 234.853 269.938 235.275 269.145C235.71 268.352 236.324 267.718 237.117 267.245C237.922 266.759 238.868 266.516 239.957 266.516C241.055 266.516 241.996 266.759 242.776 267.245C243.556 267.718 244.151 268.352 244.561 269.145C244.982 269.926 245.193 270.77 245.193 271.678C245.193 271.832 245.186 271.992 245.175 272.158C245.161 272.312 245.148 272.44 245.136 272.542H237.365C237.417 273.054 237.565 273.502 237.806 273.886C238.063 274.269 238.383 274.564 238.766 274.768C239.163 274.96 239.584 275.056 240.032 275.056C240.544 275.056 241.023 274.935 241.471 274.692C241.932 274.436 242.244 274.103 242.412 273.694L244.618 274.308C244.375 274.82 244.022 275.274 243.563 275.67C243.115 276.067 242.585 276.38 241.969 276.611C241.355 276.828 240.678 276.937 239.937 276.937ZM237.308 270.911H242.565C242.514 270.399 242.367 269.958 242.124 269.586C241.894 269.203 241.587 268.908 241.203 268.704C240.819 268.486 240.391 268.377 239.918 268.377C239.457 268.377 239.036 268.486 238.652 268.704C238.281 268.908 237.974 269.203 237.731 269.586C237.499 269.958 237.36 270.399 237.308 270.911ZM246.069 273.77C246.069 273.118 246.248 272.549 246.605 272.062C246.976 271.563 247.488 271.179 248.14 270.911C248.792 270.642 249.54 270.508 250.384 270.508C250.807 270.508 251.236 270.54 251.671 270.604C252.105 270.668 252.482 270.77 252.803 270.911V270.373C252.803 269.734 252.61 269.241 252.227 268.896C251.855 268.55 251.3 268.377 250.557 268.377C250.008 268.377 249.483 268.473 248.985 268.665C248.485 268.857 247.962 269.139 247.412 269.51L246.587 267.821C247.251 267.386 247.929 267.06 248.62 266.842C249.324 266.624 250.059 266.516 250.827 266.516C252.259 266.516 253.371 266.874 254.165 267.59C254.97 268.307 255.372 269.331 255.372 270.661V273.866C255.372 274.135 255.418 274.327 255.506 274.442C255.609 274.557 255.77 274.628 255.986 274.653V276.745C255.756 276.784 255.545 276.816 255.354 276.841C255.174 276.867 255.022 276.88 254.893 276.88C254.381 276.88 253.992 276.764 253.724 276.534C253.467 276.304 253.308 276.022 253.244 275.69L253.185 275.171C252.751 275.734 252.207 276.169 251.555 276.476C250.902 276.784 250.238 276.937 249.561 276.937C248.895 276.937 248.294 276.803 247.758 276.534C247.233 276.253 246.817 275.875 246.51 275.402C246.216 274.915 246.069 274.372 246.069 273.77ZM252.323 274.289C252.464 274.135 252.578 273.981 252.669 273.828C252.757 273.674 252.803 273.534 252.803 273.406V272.389C252.496 272.261 252.162 272.165 251.805 272.101C251.446 272.024 251.107 271.986 250.788 271.986C250.122 271.986 249.572 272.133 249.138 272.427C248.715 272.708 248.506 273.086 248.506 273.559C248.506 273.815 248.576 274.058 248.715 274.289C248.856 274.519 249.061 274.704 249.329 274.845C249.599 274.986 249.918 275.056 250.289 275.056C250.673 275.056 251.05 274.986 251.421 274.845C251.791 274.692 252.092 274.506 252.323 274.289ZM259.983 276.745V268.934H256.8V266.688H265.758V268.934H262.554V276.745H259.983ZM267.199 276.745V266.708H269.77V273.31L274.277 266.688H276.618V276.745H274.047V270.297L269.597 276.745H267.199ZM280.422 281.083C280.154 281.083 279.879 281.051 279.597 280.987C279.328 280.923 279.016 280.827 278.657 280.699L279.156 278.664C279.349 278.754 279.528 278.818 279.694 278.856C279.872 278.895 280.033 278.914 280.174 278.914C280.492 278.914 280.774 278.799 281.017 278.568C281.272 278.338 281.477 277.986 281.631 277.513L281.938 276.688L277.871 266.688H280.538L283.243 274.116L285.621 266.688H288.077L283.971 278.185C283.755 278.799 283.466 279.317 283.109 279.739C282.75 280.174 282.341 280.507 281.881 280.737C281.42 280.968 280.934 281.083 280.422 281.083ZM289.474 276.745V266.688H292.159L295.306 272.504L298.471 266.688H301.118V276.745H298.682V270.239L296.111 274.96H294.499L291.909 270.239V276.745H289.474Z" fill="#9E9C9C"></path> </g> <defs> <clipPath id="clip0_629_68"> <rect width="456.05" height="122.5" fill="white"></rect> </clipPath> <clipPath id="clip1_629_68"> <rect width="317" height="99" fill="white" transform="translate(0 186)"></rect> </clipPath> </defs> </svg> 