<svg xmlns="http://www.w3.org/2000/svg" width="283" height="346" fill="none" xmlns:v="https://vecta.io/nano"><g filter="url(#A)"><rect x="19" width="243" height="306" rx="20" fill="#fff"/></g><path d="M19 20C19 8.954 27.954 0 39 0h203c11.046 0 20 8.954 20 20v24H19V20zm46 74c0-6.627 5.373-12 12-12h153c6.627 0 12 5.373 12 12v45a2 2 0 0 1-2 2H77c-6.627 0-12-5.373-12-12V94z" fill="#03a9e1"/><path d="M82.09 103.553v-1.901c.245 0 .443-.062.595-.186a1.22 1.22 0 0 0 .362-.502c.087-.214.152-.454.195-.72l.112-.828.098-1.171.074-1.176.074-1.329 4.206.005v5.907h.488v1.901h-.827v-1.115h-4.55v1.115h-.827zm1.45-1.901h3.439V96.53l-2.612-.005-.056 1.037-.06.995-.093 1.064-.116.902c-.04.251-.099.467-.177.65s-.186.34-.325.479zm7.912.925c-.499 0-.93-.113-1.292-.339a2.25 2.25 0 0 1-.832-.939c-.195-.4-.293-.858-.293-1.376 0-.527.099-.989.297-1.385s.479-.705.841-.925.789-.335 1.278-.335c.502 0 .934.113 1.297.339s.64.534.832.934.293.854.293 1.371c0 .524-.098.985-.293 1.385a2.24 2.24 0 0 1-.837.934c-.362.223-.793.335-1.292.335zm0-.786c.52 0 .908-.173 1.162-.52s.381-.796.381-1.348c0-.567-.129-1.018-.386-1.353s-.643-.507-1.157-.507c-.35 0-.638.079-.864.237s-.395.376-.507.655-.167.601-.167.967c0 .564.13 1.016.391 1.357s.643.511 1.148.511zm5.485.791c-.474-.004-.878-.106-1.213-.307s-.595-.504-.781-.897-.29-.876-.311-1.446c-.012-.263-.009-.553.009-.869l.102-.911c.05-.291.112-.531.186-.72.084-.226.201-.435.353-.627a2.25 2.25 0 0 1 .521-.483c.195-.133.414-.237.655-.311a5.29 5.29 0 0 1 .758-.172l.799-.112.762-.121.084.744c-.17.037-.372.07-.604.098l-.725.088c-.248.034-.486.082-.716.144s-.421.141-.586.246c-.242.146-.428.364-.558.655s-.204.612-.232.971c.192-.298.441-.516.748-.655s.634-.209.981-.209c.449 0 .837.105 1.162.316s.575.494.748.86.265.782.265 1.251c0 .495-.099.929-.297 1.301s-.479.66-.841.864-.782.306-1.269.303zm.051-.786c.486 0 .855-.15 1.106-.451s.376-.706.376-1.208c0-.514-.13-.919-.39-1.213s-.626-.446-1.097-.446c-.477 0-.843.149-1.097.446s-.376.699-.376 1.213.127.923.381 1.218.62.441 1.097.441zm5.687.781c-.471 0-.867-.116-1.19-.349s-.567-.553-.734-.952a3.56 3.56 0 0 1-.246-1.353c0-.505.082-.958.246-1.357a2.14 2.14 0 0 1 .734-.944c.326-.229.724-.344 1.195-.344.465 0 .864.116 1.199.349s.597.544.776.943a3.26 3.26 0 0 1 .27 1.353c0 .502-.09.953-.27 1.353s-.438.717-.776.952-.736.349-1.204.349zm-2.31 2.091v-7.25h.739v3.695h.093v3.555h-.832zm2.208-2.849c.332 0 .606-.083.823-.251s.379-.393.488-.678a2.74 2.74 0 0 0 .162-.967c0-.353-.054-.672-.162-.958a1.46 1.46 0 0 0-.493-.679c-.22-.167-.5-.251-.841-.251-.326 0-.595.081-.809.242a1.41 1.41 0 0 0-.479.665c-.105.282-.158.609-.158.981 0 .366.051.693.154.981s.266.509.483.674.494.241.832.241zm3.371.619l-.005-5.02h.832v1.817h.767l.446.009c.152.006.284.02.395.042.26.053.488.141.683.265s.347.291.456.502.163.473.163.786c0 .433-.114.777-.34 1.031s-.516.419-.878.502c-.124.028-.267.047-.428.056l-.451.01h-1.64zm.827-.684h.827l.312-.009c.114-.006.217-.022.306-.046a.92.92 0 0 0 .423-.275c.127-.136.191-.331.191-.585s-.062-.456-.186-.595a.85.85 0 0 0-.479-.275 1.64 1.64 0 0 0-.283-.042l-.284-.009h-.827v1.836zm3.486.684v-5.02h.827v5.02h-.827zm4.293-5.606a1.22 1.22 0 0 1-.637-.172c-.192-.115-.345-.267-.46-.456s-.172-.406-.172-.641h.67c0 .164.058.305.176.423a.58.58 0 0 0 .423.177.57.57 0 0 0 .423-.177c.118-.118.177-.259.177-.423h.669c0 .236-.057.449-.172.641s-.265.341-.46.456a1.22 1.22 0 0 1-.637.172zm1.948.586v5.02h-.8v-3.7l-2.631 3.7h-.683v-5.02h.8v3.648l2.635-3.648h.679zm2.79 6.135v-1.799c.282 0 .484-.091.604-.274s.219-.491.293-.916l.121-.855.079-1.013.07-1.278h3.458v4.336h.488v1.799h-.79v-1.115h-3.533v1.115h-.79zm1.274-1.799h2.524v-3.653h-1.883l-.037.692-.056.716-.07.679-.088.567c-.04.232-.087.429-.139.59s-.137.298-.251.409zm6.947.823c-.493 0-.924-.109-1.292-.325s-.651-.526-.855-.916-.307-.852-.307-1.376c0-.548.1-1.022.302-1.422a2.21 2.21 0 0 1 .841-.929c.363-.22.787-.33 1.274-.33.505 0 .934.116 1.287.349s.623.564.799.995.258.944.233 1.538h-.837v-.297c-.009-.617-.135-1.077-.376-1.38s-.601-.46-1.078-.46c-.512 0-.901.164-1.167.493s-.4.799-.4 1.413c0 .592.133 1.05.4 1.375s.646.488 1.139.488c.331 0 .619-.075.864-.227s.437-.371.576-.656l.795.275a2.24 2.24 0 0 1-.883 1.031c-.39.242-.829.363-1.315.363zm-1.855-2.417v-.664h3.709v.664h-3.709zm5.167 2.278v-5.02h.827v2.115h2.64v-2.115h.828v5.02h-.828v-2.12h-2.64v2.12h-.827zm5.597 0l-.005-5.02h.832v1.817h1.083l.446.009a2.67 2.67 0 0 1 .395.042c.26.05.488.136.683.26a1.27 1.27 0 0 1 .456.506c.108.211.162.473.162.786 0 .433-.113.777-.339 1.031s-.516.419-.878.502c-.124.028-.267.047-.428.056l-.451.01h-1.956zm.827-.684h1.143l.312-.009c.114-.006.216-.022.306-.046a.92.92 0 0 0 .423-.275c.127-.136.191-.331.191-.585s-.062-.456-.186-.595a.85.85 0 0 0-.479-.275 1.64 1.64 0 0 0-.283-.042l-.284-.009h-1.143v1.836zm4.712.684v-.856h.827v.856h-.827zm0-1.674v-5.019h.827v5.019h-.827zm4.455 1.674v-6.693h5.224v6.693h-.827V96.53h-3.57v5.908h-.827zm8.665.139c-.499 0-.93-.113-1.292-.339s-.637-.539-.832-.939-.293-.858-.293-1.376c0-.527.099-.989.297-1.385s.479-.705.842-.925.788-.335 1.278-.335c.502 0 .934.113 1.297.339s.639.534.832.934.292.854.292 1.371c0 .524-.097.985-.292 1.385a2.25 2.25 0 0 1-.837.934c-.363.223-.793.335-1.292.335zm0-.786c.52 0 .908-.173 1.162-.52s.381-.796.381-1.348c0-.567-.129-1.018-.386-1.353s-.643-.507-1.157-.507c-.35 0-.638.079-.865.237s-.395.376-.506.655a2.58 2.58 0 0 0-.168.967c0 .564.131 1.016.391 1.357s.643.511 1.148.511zm3.073 1.762v-1.799c.282 0 .483-.091.604-.274s.219-.491.293-.916l.121-.855.079-1.013.069-1.278h3.458v4.336h.488v1.799h-.79v-1.115h-3.532v1.115h-.79zm1.273-1.799h2.524v-3.653h-1.882l-.037.692-.056.716-.07.679-.088.567c-.041.232-.087.429-.14.59s-.136.298-.251.409zm6.887.823c-.508 0-.94-.113-1.297-.339s-.623-.544-.808-.944-.282-.855-.289-1.366c.007-.524.104-.984.293-1.38a2.2 2.2 0 0 1 .823-.934c.356-.223.785-.335 1.287-.335.53 0 .986.13 1.367.39s.641.617.771 1.069l-.818.246a1.34 1.34 0 0 0-.516-.679c-.235-.161-.506-.242-.813-.242-.344 0-.627.081-.851.242s-.388.378-.497.66-.164.6-.167.962c.006.557.135 1.008.386 1.352s.63.511 1.129.511c.328 0 .601-.074.818-.223a1.39 1.39 0 0 0 .493-.655l.836.218c-.173.468-.444.826-.813 1.074s-.813.372-1.334.372zm3.091-.139l.005-5.02h.836v2.417l2.106-2.417h1.074l-2.217 2.51 2.477 2.51h-1.158l-2.282-2.417v2.417h-.841zm6.17.139c-.375 0-.689-.068-.943-.205s-.442-.322-.572-.548-.19-.474-.19-.744c0-.263.049-.491.148-.683s.245-.356.428-.483.401-.232.655-.307c.239-.065.505-.121.8-.167l.901-.135.851-.116-.298.172c.01-.446-.08-.776-.269-.99s-.508-.321-.967-.321c-.304 0-.57.07-.799.209s-.386.359-.479.669l-.786-.237c.121-.44.355-.785.702-1.037s.804-.376 1.371-.376c.456 0 .846.082 1.172.246a1.43 1.43 0 0 1 .706.734c.071.155.116.324.135.507l.028.567v3.105h-.735v-1.204l.172.111c-.189.406-.454.713-.794.921s-.75.311-1.237.311zm.126-.693c.297 0 .554-.052.771-.158s.397-.249.53-.423.22-.368.26-.576c.047-.155.072-.327.075-.516l.009-.441.288.126-.795.107-.739.112c-.232.037-.441.082-.627.134-.136.044-.265.1-.386.168s-.214.156-.288.265a.69.69 0 0 0-.107.395.8.8 0 0 0 .102.39.79.79 0 0 0 .326.302c.149.078.342.116.581.116zm3.118.554l2.027-2.51-1.929-2.51h.92l1.864 2.463v-2.463h.753v2.463l1.864-2.463h.92l-1.929 2.51 2.027 2.51h-.963l-1.919-2.464v2.464h-.753v-2.464l-1.92 2.464h-.962zm11.366-5.02v5.02h-.799v-3.7l-2.631 3.7h-.683v-5.02h.799v3.648l2.636-3.648h.678zm2.631 5.02v-4.267h-1.748v-.753h4.323v.753h-1.748v4.267h-.827zm5.63.139c-.493 0-.923-.109-1.292-.325s-.651-.526-.855-.916-.307-.852-.307-1.376c0-.548.101-1.022.302-1.422a2.21 2.21 0 0 1 .841-.929c.363-.22.787-.33 1.274-.33.505 0 .934.116 1.287.349s.623.564.8.995.257.944.232 1.538h-.837v-.297c-.009-.617-.134-1.077-.376-1.38s-.601-.46-1.078-.46c-.512 0-.901.164-1.167.493s-.4.799-.4 1.413c0 .592.134 1.05.4 1.375s.646.488 1.139.488c.331 0 .619-.075.864-.227s.437-.371.577-.656l.794.275a2.24 2.24 0 0 1-.883 1.031c-.39.242-.829.363-1.315.363zm-1.855-2.417v-.664h3.709v.664h-3.709zm4.897 3.319l.051-.386c.13.009.228-.016.293-.075s.107-.139.126-.241a1.26 1.26 0 0 0 .009-.339h-.479v-1.051h.911v1.19c0 .325-.08.57-.242.734s-.381.22-.669.168zM82.411 115.438v-5.02h4.113v5.02h-.827v-4.235h-2.459v4.235h-.827zm7.553.139c-.499 0-.93-.113-1.292-.339a2.25 2.25 0 0 1-.832-.939c-.195-.4-.293-.858-.293-1.376 0-.527.099-.988.297-1.385a2.21 2.21 0 0 1 .841-.925c.362-.223.789-.335 1.278-.335.502 0 .934.114 1.297.34s.64.534.832.934.293.854.293 1.371c0 .524-.098.985-.293 1.385a2.24 2.24 0 0 1-.837.934c-.363.223-.793.335-1.292.335zm0-.786c.521 0 .908-.173 1.162-.52s.381-.796.381-1.348c0-.567-.129-1.018-.386-1.352s-.643-.507-1.157-.507c-.35 0-.638.079-.864.237s-.395.376-.507.655-.167.601-.167.967c0 .564.13 1.016.39 1.357s.643.511 1.148.511zm2.769.647l2.026-2.51-1.929-2.51h.92l1.864 2.463v-2.463h.753v2.463l1.864-2.463h.92l-1.929 2.51 2.027 2.51h-.962l-1.92-2.464v2.464h-.753v-2.464l-1.919 2.464h-.962zm8.502.139c-.375 0-.689-.068-.943-.205s-.442-.322-.572-.548a1.49 1.49 0 0 1-.191-.744 1.47 1.47 0 0 1 .149-.683c.102-.195.245-.356.428-.483s.401-.233.655-.307a7.43 7.43 0 0 1 .799-.167l.902-.135.851-.116-.298.172c.009-.447-.08-.777-.269-.99s-.509-.321-.967-.321c-.304 0-.57.07-.8.209s-.385.36-.478.669l-.786-.237c.121-.44.355-.785.702-1.036s.804-.377 1.371-.377c.456 0 .846.083 1.171.247a1.43 1.43 0 0 1 .707.734c.071.155.116.324.135.507l.028.567v3.105h-.735v-1.204l.172.111c-.189.406-.454.713-.795.921s-.749.311-1.236.311zm.126-.693c.297 0 .554-.052.771-.158s.397-.249.53-.423.22-.368.26-.576c.047-.155.071-.327.075-.516l.009-.441.288.125-.795.107-.739.112c-.232.037-.441.082-.627.134-.137.044-.265.1-.386.168s-.214.156-.288.265a.69.69 0 0 0-.107.395.8.8 0 0 0 .102.39c.071.124.18.225.326.302s.342.116.581.116zm3.211.554v-.712c.186.034.327.028.423-.018s.172-.135.219-.256.089-.279.12-.465l.135-.985.107-1.19.093-1.394h3.509v5.02h-.827v-4.235h-1.929l-.07.879-.079.878-.093.79-.102.628c-.059.303-.141.547-.246.73a.73.73 0 0 1-.456.348c-.198.056-.466.05-.804-.018zm6.609 2.23l.971-2.64.014.781-2.194-5.391h.869l1.72 4.336h-.297l1.612-4.336h.842l-2.733 7.25h-.804zm6.466-7.836c-.233 0-.445-.057-.637-.172a1.31 1.31 0 0 1-.46-.455c-.115-.192-.172-.406-.172-.642h.669c0 .165.059.306.177.423s.258.177.423.177.308-.059.423-.177.176-.258.176-.423h.669c0 .236-.057.45-.172.642s-.264.341-.46.455-.404.172-.636.172zm1.947.586v5.02h-.799v-3.7l-2.631 3.7h-.683v-5.02h.799v3.648l2.635-3.648h.679zm3.416 5.159c-.508 0-.94-.113-1.296-.339s-.623-.544-.809-.944-.282-.855-.288-1.366c.006-.524.104-.984.293-1.381a2.2 2.2 0 0 1 .822-.934c.357-.223.786-.335 1.288-.335.53 0 .985.131 1.366.391s.642.616.772 1.069l-.818.246a1.35 1.35 0 0 0-.516-.678 1.41 1.41 0 0 0-.814-.242c-.344 0-.627.081-.85.242s-.389.378-.497.66-.165.599-.168.962c.006.557.135 1.008.386 1.352s.631.511 1.129.511c.329 0 .602-.074.818-.223s.382-.37.493-.655l.837.218c-.174.468-.445.826-.814 1.074s-.813.372-1.334.372zm4.335-.139v-4.267h-1.748v-.753h4.323v.753h-1.748v4.267h-.827zm4.718.139c-.375 0-.69-.068-.944-.205a1.45 1.45 0 0 1-.571-.548c-.127-.226-.191-.474-.191-.744 0-.263.05-.491.149-.683a1.34 1.34 0 0 1 .427-.483c.183-.13.402-.233.656-.307a7.38 7.38 0 0 1 .799-.167l.902-.135.85-.116-.297.172c.009-.447-.081-.777-.27-.99s-.508-.321-.966-.321c-.304 0-.57.07-.8.209s-.386.36-.478.669l-.786-.237c.121-.44.355-.785.702-1.036s.804-.377 1.371-.377c.455 0 .846.083 1.171.247a1.43 1.43 0 0 1 .707.734 1.58 1.58 0 0 1 .134.507 5.38 5.38 0 0 1 .028.567v3.105h-.734v-1.204l.172.111c-.189.406-.454.713-.795.921s-.75.311-1.236.311zm.125-.693c.298 0 .555-.052.772-.158s.397-.249.53-.423.22-.368.26-.576a1.88 1.88 0 0 0 .074-.516l.01-.441.288.125-.795.107-.739.112c-.232.037-.441.082-.627.134-.137.044-.265.1-.386.168s-.214.156-.288.265-.107.237-.107.395a.8.8 0 0 0 .102.39.79.79 0 0 0 .325.302c.149.078.343.116.581.116zm3.584 1.595l.051-.386c.13.009.228-.016.293-.075s.107-.139.125-.241.022-.216.01-.339h-.479v-1.051h.911v1.19c0 .325-.081.57-.242.734s-.381.22-.669.168zm4.536-1.041v-5.02h2.138c.127 0 .264.008.409.023a2.21 2.21 0 0 1 .405.07 1.21 1.21 0 0 1 .664.441c.177.22.265.499.265.837 0 .189-.029.353-.088.493s-.137.26-.242.362c-.046.047-.098.088-.153.126s-.112.066-.168.088c.109.019.219.06.33.125a1.04 1.04 0 0 1 .414.405c.102.173.153.395.153.664 0 .341-.082.623-.246.846s-.39.372-.678.456c-.121.034-.255.057-.4.07l-.423.014h-2.38zm.837-.674h1.496c.065 0 .143-.007.233-.019s.175-.028.246-.046a.56.56 0 0 0 .349-.261c.074-.127.111-.265.111-.413 0-.199-.056-.36-.167-.484s-.253-.201-.432-.232a.89.89 0 0 0-.214-.033l-.2-.004h-1.422v1.492zm0-2.176h1.245a2.65 2.65 0 0 0 .275-.014 1.05 1.05 0 0 0 .251-.06c.142-.053.246-.139.311-.26a.83.83 0 0 0 .102-.405c0-.161-.037-.302-.111-.423a.56.56 0 0 0-.33-.255 1.05 1.05 0 0 0-.335-.061l-.232-.009h-1.176v1.487zm6.08 2.85l.005-5.02h.837v2.417l2.105-2.417h1.074l-2.217 2.51 2.477 2.51h-1.157l-2.282-2.417v2.417h-.842zm6.17.139c-.374 0-.689-.068-.943-.205s-.442-.322-.572-.548-.19-.474-.19-.744c0-.263.049-.491.148-.683a1.34 1.34 0 0 1 .428-.483 2.17 2.17 0 0 1 .655-.307 7.4 7.4 0 0 1 .8-.167l.901-.135.851-.116-.297.172c.009-.447-.081-.777-.27-.99s-.508-.321-.967-.321a1.51 1.51 0 0 0-.799.209c-.226.136-.386.36-.479.669l-.785-.237c.12-.44.354-.785.701-1.036s.805-.377 1.372-.377c.455 0 .845.083 1.171.247a1.43 1.43 0 0 1 .706.734 1.58 1.58 0 0 1 .135.507 5.38 5.38 0 0 1 .028.567v3.105h-.734v-1.204l.172.111c-.189.406-.454.713-.795.921s-.75.311-1.237.311zm.126-.693c.297 0 .555-.052.771-.158s.397-.249.53-.423a1.38 1.38 0 0 0 .261-.576c.046-.155.071-.327.074-.516l.009-.441.288.125-.794.107-.739.112c-.233.037-.442.082-.628.134-.136.044-.265.1-.386.168a.88.88 0 0 0-.288.265.69.69 0 0 0-.107.395.79.79 0 0 0 .103.39c.071.124.179.225.325.302s.342.116.581.116zm3.672.554l.004-5.02h.837v2.417l2.105-2.417h1.074l-2.217 2.51 2.477 2.51h-1.157l-2.282-2.417v2.417h-.841zm6.79.139c-.499 0-.929-.113-1.292-.339s-.637-.539-.832-.939-.293-.858-.293-1.376c0-.527.099-.988.298-1.385s.478-.705.841-.925.789-.335 1.278-.335c.502 0 .934.114 1.297.34s.64.534.832.934.293.854.293 1.371c0 .524-.098.985-.293 1.385s-.474.708-.837.934-.793.335-1.292.335zm0-.786c.521 0 .908-.173 1.162-.52s.381-.796.381-1.348c0-.567-.128-1.018-.386-1.352s-.643-.507-1.157-.507c-.35 0-.638.079-.864.237s-.395.376-.507.655-.167.601-.167.967c0 .564.13 1.016.39 1.357s.643.511 1.148.511zm5.62.786c-.493 0-.923-.109-1.292-.325s-.651-.526-.855-.916-.307-.852-.307-1.376c0-.548.101-1.022.302-1.422s.482-.713.841-.93.787-.33 1.274-.33c.505 0 .934.117 1.287.349s.623.564.8.995.257.943.232 1.538h-.836v-.297c-.01-.617-.135-1.077-.377-1.381s-.601-.46-1.078-.46c-.511 0-.9.164-1.167.493s-.4.799-.4 1.413c0 .592.134 1.05.4 1.375s.646.488 1.139.488c.331 0 .62-.075.864-.227s.437-.371.577-.656l.794.275a2.24 2.24 0 0 1-.883 1.031c-.39.242-.828.363-1.315.363zm-1.854-2.417v-.665h3.709v.665h-3.709zm7.027 2.278v-5.02h2.138c.127 0 .264.008.409.023a2.21 2.21 0 0 1 .405.07 1.21 1.21 0 0 1 .664.441c.177.22.265.499.265.837 0 .189-.029.353-.088.493s-.137.26-.242.362c-.046.047-.098.088-.153.126s-.112.066-.168.088c.109.019.219.06.33.125a1.04 1.04 0 0 1 .414.405c.102.173.153.395.153.664 0 .341-.082.623-.246.846s-.39.372-.678.456c-.121.034-.255.057-.4.07l-.423.014h-2.38zm.837-.674h1.496c.065 0 .143-.007.233-.019s.175-.028.246-.046a.56.56 0 0 0 .349-.261c.074-.127.111-.265.111-.413 0-.199-.056-.36-.167-.484s-.253-.201-.432-.232a.89.89 0 0 0-.214-.033l-.2-.004h-1.422v1.492zm0-2.176h1.245a2.65 2.65 0 0 0 .275-.014 1.05 1.05 0 0 0 .251-.06c.142-.053.246-.139.311-.26a.83.83 0 0 0 .102-.405c0-.161-.037-.302-.111-.423a.56.56 0 0 0-.33-.255 1.05 1.05 0 0 0-.335-.061l-.232-.009h-1.176v1.487zm6.529 2.989c-.471 0-.867-.116-1.189-.349s-.567-.553-.735-.952a3.56 3.56 0 0 1-.246-1.353c0-.505.082-.957.246-1.357s.412-.714.735-.944.723-.344 1.194-.344c.465 0 .865.117 1.199.349s.597.544.776.944.27.85.27 1.352-.09.953-.27 1.353-.438.717-.776.952-.736.349-1.204.349zm-2.31 2.091v-7.25h.739v3.695h.093v3.555h-.832zm2.208-2.849c.332 0 .606-.083.823-.251s.379-.393.488-.678a2.74 2.74 0 0 0 .162-.967c0-.353-.054-.672-.162-.957a1.46 1.46 0 0 0-.493-.679c-.22-.167-.5-.251-.841-.251-.325 0-.595.081-.809.242s-.373.379-.479.664-.158.609-.158.981c0 .366.052.693.154.981s.266.509.483.674.494.241.832.241zm5.546.758c-.493 0-.923-.109-1.292-.325s-.651-.526-.855-.916-.307-.852-.307-1.376c0-.548.101-1.022.302-1.422a2.21 2.21 0 0 1 .841-.93c.363-.22.787-.33 1.274-.33.505 0 .934.117 1.287.349s.623.564.8.995.257.943.232 1.538h-.837v-.297c-.009-.617-.134-1.077-.376-1.381s-.601-.46-1.078-.46c-.512 0-.9.164-1.167.493s-.4.799-.4 1.413c0 .592.134 1.05.4 1.375s.646.488 1.139.488c.331 0 .619-.075.864-.227s.437-.371.577-.656l.794.275a2.24 2.24 0 0 1-.883 1.031c-.39.242-.829.363-1.315.363zm-1.854-2.417v-.665h3.708v.665h-3.708zm5.03 2.278v-5.02h.711l1.906 3.895 1.905-3.895h.711v5.02h-.799v-3.296l-1.599 3.296h-.437l-1.599-3.296v3.296h-.799zm9.632 0v-1.818h-1.083a6.57 6.57 0 0 1-.423-.014l-.428-.051a1.72 1.72 0 0 1-.92-.479c-.248-.251-.372-.598-.372-1.041 0-.43.116-.776.349-1.036s.525-.434.869-.511a2.13 2.13 0 0 1 .469-.061l.409-.009h1.957l.005 5.02h-.832zm-3.379 0l1.334-2.046h.892l-1.334 2.046h-.892zm2.235-2.501h1.144v-1.836h-1.144l-.283.009a1.48 1.48 0 0 0-.33.056c-.099.028-.197.079-.293.154s-.171.17-.232.288-.093.257-.093.418a.82.82 0 0 0 .195.567c.13.143.288.239.474.288.102.025.203.041.302.047l.26.009zm5.138 2.501v-5.02h2.138a4.02 4.02 0 0 1 .409.023c.148.013.283.036.404.07.27.071.491.218.665.441s.264.499.264.837c0 .189-.029.353-.088.493a1.04 1.04 0 0 1-.241.362c-.047.047-.098.088-.154.126s-.111.066-.167.088c.108.019.218.06.33.125.176.097.314.231.413.405s.154.395.154.664c0 .341-.082.623-.247.846s-.39.372-.678.456a2.2 2.2 0 0 1-.4.07l-.423.014h-2.379zm.836-.674h1.497a1.81 1.81 0 0 0 .232-.019c.093-.012.175-.028.247-.046.161-.047.277-.134.348-.261a.81.81 0 0 0 .112-.413c0-.199-.056-.36-.168-.484s-.252-.201-.432-.232a.88.88 0 0 0-.214-.033l-.2-.004h-1.422v1.492zm0-2.176h1.246c.087 0 .178-.004.274-.014a1.04 1.04 0 0 0 .251-.06c.143-.053.246-.139.311-.26a.82.82 0 0 0 .103-.405c0-.161-.038-.302-.112-.423s-.181-.209-.33-.255a1.05 1.05 0 0 0-.335-.061l-.232-.009h-1.176v1.487zm4.225 2.85l-.005-5.02h.832v1.817h.767l.446.009c.152.007.283.021.395.042a2.01 2.01 0 0 1 .683.265 1.28 1.28 0 0 1 .456.502c.108.211.162.473.162.786 0 .433-.113.777-.339 1.031s-.516.419-.878.502c-.124.028-.267.047-.428.056l-.451.01h-1.64zm.827-.684h.827l.312-.009c.114-.006.216-.022.306-.046a.92.92 0 0 0 .423-.275c.127-.136.191-.331.191-.585s-.062-.456-.186-.595a.85.85 0 0 0-.479-.274c-.09-.022-.184-.036-.283-.042l-.284-.01h-.827v1.836zm3.486.684v-5.02h.827v5.02h-.827zM84.721 128.577c-.471 0-.868-.116-1.19-.349s-.567-.553-.734-.952-.246-.854-.246-1.353c0-.505.082-.957.246-1.357s.412-.714.734-.944.724-.344 1.195-.344c.465 0 .864.117 1.199.349a2.2 2.2 0 0 1 .776.944c.18.399.27.85.27 1.352s-.09.953-.27 1.353-.438.717-.776.952-.736.349-1.204.349zm-2.31 2.091v-7.25h.739v3.695h.093v3.555h-.832zm2.208-2.849c.332 0 .606-.083.823-.251a1.51 1.51 0 0 0 .488-.678 2.73 2.73 0 0 0 .163-.967c0-.353-.054-.672-.163-.957s-.27-.512-.493-.679-.5-.251-.841-.251c-.325 0-.595.081-.809.242s-.373.379-.479.664-.158.609-.158.981a2.92 2.92 0 0 0 .153.981c.105.285.266.509.483.674s.494.241.832.241zm4.797.758c-.375 0-.689-.068-.944-.205s-.441-.322-.572-.548-.191-.474-.191-.744a1.47 1.47 0 0 1 .149-.683c.102-.195.245-.356.428-.483a2.17 2.17 0 0 1 .655-.307 7.4 7.4 0 0 1 .799-.167l.902-.135.851-.116-.297.172c.009-.447-.081-.777-.27-.99s-.508-.321-.967-.321c-.304 0-.57.07-.799.209s-.386.36-.479.669l-.785-.237c.121-.44.355-.785.702-1.036s.804-.377 1.371-.377c.456 0 .846.083 1.171.247a1.43 1.43 0 0 1 .707.734 1.59 1.59 0 0 1 .135.507 5.49 5.49 0 0 1 .028.567v3.105h-.734v-1.204l.172.111c-.189.406-.454.713-.795.921s-.75.311-1.236.311zm.126-.693a1.74 1.74 0 0 0 .772-.158 1.47 1.47 0 0 0 .53-.423 1.38 1.38 0 0 0 .26-.576 1.9 1.9 0 0 0 .074-.516l.009-.441.288.125-.795.107-.739.112a5.62 5.62 0 0 0-.627.134c-.136.044-.265.1-.386.168a.87.87 0 0 0-.288.265.69.69 0 0 0-.107.395.8.8 0 0 0 .102.39c.071.124.18.225.325.302s.342.116.581.116zm5.717.698c-.474-.004-.879-.106-1.213-.307s-.595-.504-.781-.897-.29-.876-.311-1.446a8.26 8.26 0 0 1 .009-.869l.102-.911c.05-.291.112-.531.186-.72.084-.226.201-.435.353-.628a2.25 2.25 0 0 1 .52-.483 2.41 2.41 0 0 1 .655-.311c.242-.075.494-.132.758-.172l.799-.112.762-.121.084.744c-.17.037-.372.07-.604.098l-.725.088c-.248.034-.486.082-.716.144s-.421.141-.586.246c-.242.146-.428.364-.558.656s-.204.612-.232.971a1.73 1.73 0 0 1 .748-.655c.307-.14.634-.21.981-.21.449 0 .837.106 1.162.317s.575.494.748.859.265.783.265 1.251c0 .495-.099.929-.297 1.301a2.11 2.11 0 0 1-.841.864c-.359.205-.782.306-1.269.303zm.051-.786c.487 0 .855-.15 1.106-.451s.376-.706.376-1.208c0-.515-.13-.919-.39-1.213s-.626-.446-1.097-.446c-.477 0-.843.148-1.097.446s-.377.698-.377 1.213.127.923.381 1.218.62.441 1.097.441zm5.521.781c-.499 0-.93-.113-1.293-.339a2.25 2.25 0 0 1-.832-.939c-.195-.4-.293-.858-.293-1.376 0-.527.099-.988.297-1.385a2.21 2.21 0 0 1 .841-.925c.362-.223.788-.335 1.278-.335.502 0 .934.114 1.296.34a2.17 2.17 0 0 1 .832.934c.196.397.293.854.293 1.371 0 .524-.097.985-.293 1.385a2.24 2.24 0 0 1-.836.934c-.363.223-.794.335-1.292.335zm0-.786c.52 0 .907-.173 1.162-.52s.381-.796.381-1.348c0-.567-.129-1.018-.386-1.352s-.643-.507-1.157-.507c-.351 0-.639.079-.865.237s-.395.376-.507.655-.167.601-.167.967c0 .564.13 1.016.39 1.357s.643.511 1.148.511zm4.665.647v-4.267h-1.748v-.753h4.323v.753h-1.748v4.267h-.827zm4.718.139c-.375 0-.69-.068-.944-.205a1.45 1.45 0 0 1-.571-.548c-.127-.226-.191-.474-.191-.744 0-.263.05-.491.149-.683a1.34 1.34 0 0 1 .427-.483c.183-.13.402-.233.656-.307a7.38 7.38 0 0 1 .799-.167l.902-.135.85-.116-.297.172c.009-.447-.081-.777-.27-.99s-.508-.321-.966-.321c-.304 0-.57.07-.8.209s-.385.36-.478.669l-.786-.237c.121-.44.355-.785.702-1.036s.804-.377 1.371-.377c.455 0 .846.083 1.171.247a1.43 1.43 0 0 1 .707.734 1.58 1.58 0 0 1 .134.507 5.38 5.38 0 0 1 .028.567v3.105h-.734v-1.204l.172.111c-.189.406-.454.713-.795.921s-.75.311-1.236.311zm.125-.693c.298 0 .555-.052.772-.158s.397-.249.53-.423.22-.368.26-.576a1.88 1.88 0 0 0 .074-.516l.01-.441.288.125-.795.107-.739.112c-.232.037-.441.082-.627.134-.137.044-.265.1-.386.168s-.214.156-.288.265-.107.237-.107.395a.8.8 0 0 0 .102.39.79.79 0 0 0 .325.302c.149.078.343.116.581.116zm5.852.693c-.493 0-.923-.109-1.292-.325s-.651-.526-.855-.916-.307-.852-.307-1.376c0-.548.101-1.022.302-1.422a2.21 2.21 0 0 1 .841-.93c.363-.22.787-.33 1.274-.33.505 0 .934.117 1.287.349s.623.564.8.995.257.943.232 1.538h-.837v-.297c-.009-.617-.134-1.077-.376-1.381s-.601-.46-1.078-.46c-.512 0-.9.164-1.167.493s-.4.799-.4 1.413c0 .592.134 1.05.4 1.375s.646.488 1.139.488c.331 0 .619-.075.864-.227s.437-.371.577-.656l.794.275a2.24 2.24 0 0 1-.883 1.031c-.39.242-.829.363-1.315.363zm-1.855-2.417v-.665h3.709v.665h-3.709zm6.41 2.278v-4.267h-1.747v-.753h4.322v.753h-1.747v4.267h-.828zm5.63.139c-.493 0-.923-.109-1.292-.325s-.651-.526-.855-.916-.307-.852-.307-1.376c0-.548.101-1.022.302-1.422s.482-.713.841-.93.787-.33 1.274-.33c.505 0 .934.117 1.287.349s.623.564.8.995.257.943.232 1.538h-.836v-.297c-.01-.617-.135-1.077-.377-1.381s-.601-.46-1.078-.46c-.511 0-.9.164-1.167.493s-.399.799-.399 1.413c0 .592.133 1.05.399 1.375s.646.488 1.139.488c.331 0 .62-.075.864-.227s.437-.371.577-.656l.795.275a2.25 2.25 0 0 1-.884 1.031c-.39.242-.828.363-1.315.363zm-1.854-2.417v-.665h3.709v.665h-3.709zm6.449.456c0-.233.014-.444.042-.633a1.71 1.71 0 0 1 .195-.557c.09-.174.197-.315.321-.423s.257-.219.4-.321.283-.228.422-.376c.124-.14.207-.279.247-.419s.06-.292.06-.451a1.29 1.29 0 0 0-.051-.376c-.031-.115-.084-.212-.158-.293-.111-.139-.251-.235-.418-.288s-.336-.079-.516-.079c-.171 0-.332.023-.483.07s-.273.119-.372.218a.81.81 0 0 0-.219.33c-.046.127-.069.265-.069.414h-.865a2.23 2.23 0 0 1 .191-.767 1.63 1.63 0 0 1 .46-.604c.183-.155.392-.268.627-.34s.473-.111.711-.111c.316 0 .615.048.897.144a1.57 1.57 0 0 1 .711.479c.146.158.254.339.326.544a1.95 1.95 0 0 1 .107.646c0 .275-.056.532-.168.771a2.26 2.26 0 0 1-.441.646 2.57 2.57 0 0 1-.335.307l-.339.279c-.105.093-.189.195-.251.306-.081.146-.127.281-.14.405l-.013.479h-.879zm.005 1.822v-1.018h.874v1.018h-.874z" fill="#fff"/><path d="M46.375 72v-5.907h-2.282v-.785h5.391v.785h-2.282V72h-.827zm5.28.139c-.493 0-.923-.108-1.292-.325a2.28 2.28 0 0 1-.855-.916c-.204-.394-.307-.852-.307-1.376 0-.548.101-1.022.302-1.422a2.21 2.21 0 0 1 .841-.929c.363-.22.787-.33 1.274-.33.505 0 .934.116 1.287.349a2.1 2.1 0 0 1 .799.995c.18.431.257.944.232 1.538h-.837v-.297c-.009-.617-.135-1.077-.376-1.38s-.601-.46-1.078-.46c-.511 0-.9.164-1.167.493s-.4.799-.4 1.413c0 .592.133 1.05.4 1.376s.646.488 1.139.488c.331 0 .62-.076.864-.228a1.55 1.55 0 0 0 .576-.655l.795.274a2.25 2.25 0 0 1-.883 1.032c-.39.242-.829.362-1.315.362zM49.8 69.722v-.665h3.709v.665H49.8zM55.065 72v-6.832h.827V72h-.827zm4.397.139c-.493 0-.923-.108-1.292-.325a2.28 2.28 0 0 1-.855-.916c-.205-.394-.307-.852-.307-1.376 0-.548.101-1.022.302-1.422a2.21 2.21 0 0 1 .841-.929c.363-.22.787-.33 1.273-.33.505 0 .934.116 1.287.349a2.12 2.12 0 0 1 .799.995c.176.431.257.944.232 1.538h-.837v-.297c-.009-.617-.135-1.077-.377-1.38s-.601-.46-1.078-.46c-.511 0-.9.164-1.167.493s-.4.799-.4 1.413c0 .592.133 1.05.4 1.376s.646.488 1.139.488a1.6 1.6 0 0 0 .864-.228 1.55 1.55 0 0 0 .576-.655l.795.274a2.25 2.25 0 0 1-.883 1.032c-.39.242-.829.362-1.315.362zm-1.855-2.417v-.665h3.709v.665h-3.709zm7.202 4.648a2.51 2.51 0 0 1-.772-.121 2.22 2.22 0 0 1-.692-.367c-.208-.161-.381-.366-.521-.614l.758-.4c.124.245.299.423.525.534s.465.167.707.167c.319 0 .584-.059.795-.177a1.05 1.05 0 0 0 .465-.516c.099-.229.152-.514.149-.855V70.65h.098v-3.67h.734v5.052l-.014.395a2.55 2.55 0 0 1-.046.377 1.86 1.86 0 0 1-.386.878c-.192.232-.44.404-.744.516s-.655.172-1.055.172zm-.06-2.231c-.468 0-.869-.116-1.204-.349s-.593-.553-.776-.953-.27-.851-.27-1.352.09-.953.27-1.353.442-.714.776-.943.734-.349 1.199-.349c.474 0 .872.115 1.195.344a2.11 2.11 0 0 1 .73.944c.167.4.251.852.251 1.357 0 .499-.084.95-.251 1.352s-.407.717-.73.953-.719.349-1.19.349zm.102-.758c.338 0 .615-.081.832-.242s.376-.389.479-.674.158-.615.158-.981c0-.372-.053-.699-.158-.981s-.26-.507-.474-.665-.485-.242-.813-.242c-.341 0-.623.084-.846.251a1.5 1.5 0 0 0-.493.679c-.105.285-.158.604-.158.958a2.73 2.73 0 0 0 .163.967 1.5 1.5 0 0 0 .488.679c.217.168.494.251.823.251zm3.501.618v-5.02h.739v1.213l-.121-.158a1.88 1.88 0 0 1 .228-.427 1.43 1.43 0 0 1 .321-.321 1.42 1.42 0 0 1 .442-.242 1.87 1.87 0 0 1 .502-.098 1.61 1.61 0 0 1 .479.032v.776c-.174-.047-.364-.059-.572-.037a1.16 1.16 0 0 0-.576.228 1.24 1.24 0 0 0-.376.418 1.8 1.8 0 0 0-.181.535 3.31 3.31 0 0 0-.051.581V72h-.832zm4.731.139c-.375 0-.689-.068-.944-.204a1.41 1.41 0 0 1-.572-.548c-.13-.226-.191-.474-.191-.744 0-.263.05-.491.149-.683a1.33 1.33 0 0 1 .428-.483 2.27 2.27 0 0 1 .655-.307 7.43 7.43 0 0 1 .799-.167l.902-.135.85-.116-.297.172c.009-.446-.081-.776-.27-.99s-.508-.321-.967-.321c-.304 0-.57.07-.799.209s-.386.359-.479.669l-.785-.237a1.84 1.84 0 0 1 .702-1.037c.347-.252.804-.376 1.371-.376.456 0 .846.082 1.171.246a1.43 1.43 0 0 1 .706.734 1.59 1.59 0 0 1 .135.507 5.54 5.54 0 0 1 .028.567V72h-.734v-1.204l.172.112c-.189.406-.454.713-.795.92s-.75.311-1.236.311zm.126-.692a1.75 1.75 0 0 0 .772-.158c.22-.108.397-.249.53-.423a1.37 1.37 0 0 0 .26-.576 1.9 1.9 0 0 0 .074-.516l.009-.442.288.126-.795.107-.739.112a5.5 5.5 0 0 0-.628.135c-.136.043-.265.099-.386.167s-.214.156-.288.265a.69.69 0 0 0-.107.395.8.8 0 0 0 .102.39.79.79 0 0 0 .325.302c.149.078.342.116.581.116zm9.677.553l.005-3.212c0-.375-.101-.668-.302-.878s-.457-.321-.776-.321c-.186 0-.362.043-.53.13a.99.99 0 0 0-.409.4c-.105.183-.158.411-.158.692l-.437-.177a1.79 1.79 0 0 1 .218-.934 1.64 1.64 0 0 1 .632-.627c.266-.149.567-.223.902-.223.524 0 .936.159 1.236.479s.451.742.451 1.278L83.713 72h-.827zm-6.005 0v-5.02h.739v1.343h.093V72h-.832zm3.007 0l.005-3.179c0-.384-.099-.685-.297-.902s-.462-.33-.79-.33a1.01 1.01 0 0 0-.79.335c-.201.223-.302.519-.302.888l-.437-.26a1.66 1.66 0 0 1 .232-.874c.155-.257.366-.459.632-.604s.569-.223.906-.223.632.071.883.214.445.347.581.614.204.578.204.944L80.711 72h-.823zm6.901 0v-6.693h3.904v.827h-3.077v2.105h2.519v.827h-2.519V72h-.827zm6.778.139c-.493 0-.923-.108-1.292-.325a2.28 2.28 0 0 1-.855-.916c-.204-.394-.307-.852-.307-1.376 0-.548.101-1.022.302-1.422a2.21 2.21 0 0 1 .841-.929c.362-.22.787-.33 1.273-.33.505 0 .934.116 1.287.349a2.1 2.1 0 0 1 .799.995c.18.431.257.944.232 1.538h-.837v-.297c-.009-.617-.135-1.077-.376-1.38s-.601-.46-1.078-.46c-.511 0-.9.164-1.167.493s-.4.799-.4 1.413c0 .592.133 1.05.4 1.376s.646.488 1.139.488c.331 0 .62-.076.864-.228a1.55 1.55 0 0 0 .576-.655l.795.274a2.25 2.25 0 0 1-.883 1.032c-.39.242-.829.362-1.315.362zm-1.855-2.417v-.665h3.709v.665h-3.709zm7.346 2.417c-.493 0-.923-.108-1.292-.325a2.28 2.28 0 0 1-.855-.916c-.205-.394-.307-.852-.307-1.376 0-.548.101-1.022.302-1.422a2.21 2.21 0 0 1 .841-.929c.362-.22.787-.33 1.273-.33.505 0 .934.116 1.287.349s.623.564.8.995.257.944.232 1.538h-.837v-.297c-.009-.617-.134-1.077-.376-1.38s-.601-.46-1.078-.46c-.511 0-.9.164-1.167.493s-.4.799-.4 1.413c0 .592.133 1.05.4 1.376s.646.488 1.139.488c.332 0 .62-.076.865-.228s.437-.37.577-.655l.794.274c-.195.443-.489.787-.883 1.032s-.829.362-1.315.362zm-1.854-2.417v-.665h3.709v.665h-3.709zm7.142 2.417c-.468 0-.869-.116-1.203-.349s-.594-.553-.777-.953-.269-.851-.269-1.352.09-.953.269-1.353.442-.714.777-.943.734-.349 1.199-.349c.474 0 .872.115 1.194.344a2.11 2.11 0 0 1 .73.944c.167.4.251.852.251 1.357 0 .499-.084.95-.251 1.352s-.408.717-.73.953-.719.349-1.19.349zm.103-.758c.337 0 .615-.081.832-.242s.376-.389.478-.674.158-.615.158-.981c0-.372-.052-.699-.158-.981s-.26-.507-.474-.665-.485-.242-.813-.242c-.341 0-.623.084-.846.251s-.384.393-.493.679-.158.604-.158.958a2.75 2.75 0 0 0 .163.967 1.51 1.51 0 0 0 .488.679c.22.167.494.251.823.251zm1.468.618v-3.695h-.093v-2.998h.832V72h-.739zm4.347.139c-.471 0-.868-.116-1.19-.349s-.567-.553-.734-.953-.247-.854-.247-1.352c0-.505.082-.958.247-1.357a2.14 2.14 0 0 1 .734-.944c.325-.229.723-.344 1.194-.344.465 0 .865.116 1.2.349a2.25 2.25 0 0 1 .776.943c.18.399.269.851.269 1.353a3.27 3.27 0 0 1-.269 1.352c-.179.399-.439.717-.776.953s-.736.349-1.204.349zm-2.31-.139v-6.693h.832v2.998h-.093V72h-.739zm2.208-.618c.331 0 .605-.084.822-.251a1.51 1.51 0 0 0 .488-.679c.109-.288.163-.61.163-.967s-.054-.672-.163-.958a1.48 1.48 0 0 0-.492-.679c-.223-.168-.501-.251-.842-.251-.325 0-.595.081-.808.242s-.374.38-.479.665-.158.609-.158.981c0 .366.051.692.153.981a1.41 1.41 0 0 0 .484.674c.217.164.494.242.832.242zm4.797.758c-.375 0-.689-.068-.943-.204s-.442-.322-.572-.548-.191-.474-.191-.744c0-.263.05-.491.149-.683a1.33 1.33 0 0 1 .428-.483c.182-.13.401-.232.655-.307a7.43 7.43 0 0 1 .799-.167l.902-.135.851-.116-.298.172c.009-.446-.08-.776-.269-.99s-.509-.321-.967-.321a1.51 1.51 0 0 0-.8.209c-.226.136-.385.359-.478.669l-.786-.237a1.84 1.84 0 0 1 .702-1.037c.347-.252.804-.376 1.371-.376.456 0 .846.082 1.171.246a1.43 1.43 0 0 1 .707.734c.071.155.116.324.135.507l.028.567V72h-.735v-1.204l.172.112c-.189.406-.454.713-.795.92s-.749.311-1.236.311zm.126-.692c.297 0 .554-.053.771-.158a1.46 1.46 0 0 0 .53-.423 1.37 1.37 0 0 0 .26-.576c.047-.155.071-.327.075-.516l.009-.442.288.126-.795.107-.739.112c-.232.037-.441.082-.627.135a2.03 2.03 0 0 0-.386.167.87.87 0 0 0-.288.265.69.69 0 0 0-.107.395.8.8 0 0 0 .102.39.79.79 0 0 0 .326.302c.146.077.342.116.581.116zm5.791.692c-.508 0-.941-.113-1.297-.339a2.21 2.21 0 0 1-.809-.944c-.186-.4-.282-.855-.288-1.366.006-.524.104-.984.293-1.38s.466-.711.823-.934.785-.335 1.287-.335c.53 0 .985.13 1.366.39s.642.617.772 1.069l-.818.246a1.34 1.34 0 0 0-.516-.679c-.235-.161-.507-.242-.813-.242-.344 0-.628.081-.851.242a1.41 1.41 0 0 0-.497.66c-.108.282-.164.6-.167.962.006.558.134 1.009.385 1.352s.631.511 1.13.511c.328 0 .601-.074.818-.223s.381-.37.492-.655l.837.219c-.174.468-.445.826-.813 1.074s-.814.372-1.334.372zm3.091-.139l.005-6.693h.836v4.09l2.106-2.417h1.073l-2.217 2.51 2.477 2.51h-1.157l-2.282-2.417V72h-.841zm-81.565 99.14c-.666 0-1.232-.147-1.697-.441s-.819-.703-1.064-1.227-.362-1.13-.362-1.817.121-1.294.362-1.818a2.82 2.82 0 0 1 1.064-1.227c.464-.295 1.03-.441 1.697-.441s1.236.147 1.701.441a2.81 2.81 0 0 1 1.06 1.227c.242.523.363 1.13.363 1.818s-.121 1.293-.363 1.817-.595.933-1.06 1.227-1.032.441-1.701.441zm0-.79c.499.003.914-.108 1.246-.334s.584-.547.748-.953.251-.875.251-1.408-.084-1.006-.251-1.409-.414-.717-.748-.943-.747-.341-1.246-.344-.914.108-1.246.335-.576.542-.744.948-.252.877-.256 1.413.079 1 .246 1.403.417.719.748.948.751.341 1.25.344zm4.052.651v-5.02h4.113V171h-.827v-4.234h-2.459V171h-.827zm7.59.139c-.493 0-.923-.108-1.292-.325a2.23 2.23 0 0 1-.855-.916c-.204-.391-.307-.852-.307-1.375 0-.549.101-1.023.302-1.422a2.21 2.21 0 0 1 .841-.93c.363-.22.787-.33 1.273-.33.505 0 .934.116 1.288.349a2.11 2.11 0 0 1 .799.994c.176.431.257.944.232 1.539h-.837v-.298c-.009-.616-.135-1.077-.377-1.38s-.601-.46-1.078-.46c-.511 0-.9.164-1.167.492s-.4.8-.4 1.413c0 .592.133 1.051.4 1.376s.646.488 1.139.488a1.6 1.6 0 0 0 .864-.228 1.55 1.55 0 0 0 .576-.655l.795.274c-.195.443-.489.787-.883 1.032s-.829.362-1.315.362zm-1.854-2.416v-.665h3.709v.665H52.19zm7.477 2.416c-.471 0-.868-.116-1.19-.348s-.567-.553-.734-.953-.246-.854-.246-1.352a3.55 3.55 0 0 1 .246-1.358c.164-.4.412-.714.734-.943s.724-.344 1.194-.344c.465 0 .864.116 1.199.349s.596.543.776.943.27.851.27 1.353-.09.952-.27 1.352-.438.717-.776.953-.736.348-1.204.348zm-2.31 2.092v-7.251h.739v3.695h.093v3.556h-.832zm2.208-2.849c.331 0 .606-.084.823-.251a1.51 1.51 0 0 0 .488-.679c.108-.285.163-.61.163-.966s-.054-.673-.163-.958-.27-.511-.493-.678-.5-.251-.841-.251c-.325 0-.595.08-.809.241s-.373.38-.479.665-.158.609-.158.981c0 .365.051.692.153.98a1.42 1.42 0 0 0 .483.674c.216.164.494.242.832.242zm4.797.757c-.375 0-.689-.068-.944-.204s-.442-.322-.572-.549a1.49 1.49 0 0 1-.191-.743 1.47 1.47 0 0 1 .149-.683 1.33 1.33 0 0 1 .428-.484c.183-.13.401-.232.655-.306a7.38 7.38 0 0 1 .799-.168l.902-.135.851-.116-.297.172c.009-.446-.081-.776-.27-.99s-.508-.321-.967-.321a1.5 1.5 0 0 0-.799.21c-.229.14-.386.359-.479.669l-.785-.237c.121-.44.355-.786.702-1.037s.804-.376 1.371-.376c.456 0 .846.082 1.171.246a1.43 1.43 0 0 1 .706.735 1.6 1.6 0 0 1 .135.506 5.52 5.52 0 0 1 .028.567V171h-.734v-1.204l.172.112a2.06 2.06 0 0 1-.795.92c-.338.208-.75.311-1.236.311zm.126-.692c.297 0 .555-.053.772-.158a1.49 1.49 0 0 0 .53-.423 1.39 1.39 0 0 0 .26-.576 1.9 1.9 0 0 0 .074-.516l.009-.442.288.126-.795.107-.739.111a5.39 5.39 0 0 0-.627.135 2.03 2.03 0 0 0-.386.167.88.88 0 0 0-.288.265.69.69 0 0 0-.107.395.8.8 0 0 0 .102.391c.071.124.18.224.325.302s.342.116.581.116zm5.006.553v-4.267h-1.748v-.753h4.322v.753H70.32V171h-.827zm5.502.139c-.499 0-.93-.113-1.292-.339s-.637-.539-.832-.939-.293-.858-.293-1.375c0-.527.099-.989.297-1.385a2.21 2.21 0 0 1 .841-.925c.362-.223.789-.335 1.278-.335.502 0 .934.113 1.297.339a2.18 2.18 0 0 1 .832.934c.195.397.293.854.293 1.372s-.098.985-.293 1.385a2.22 2.22 0 0 1-.837.934c-.363.226-.793.334-1.292.334zm0-.785c.52 0 .908-.174 1.162-.521s.381-.796.381-1.347c0-.567-.129-1.018-.386-1.353s-.643-.507-1.157-.507c-.35 0-.638.079-.865.237a1.42 1.42 0 0 0-.507.656c-.112.279-.167.601-.167.967 0 .563.13 1.016.391 1.357s.643.511 1.148.511zm5.75.785c-.471 0-.868-.116-1.19-.348s-.567-.553-.734-.953-.246-.854-.246-1.352a3.55 3.55 0 0 1 .246-1.358c.164-.4.412-.714.734-.943s.724-.344 1.195-.344c.465 0 .864.116 1.199.349s.596.543.776.943.27.851.27 1.353-.09.952-.27 1.352-.438.717-.776.953-.736.348-1.204.348zm-2.31 2.092v-7.251h.739v3.695h.093v3.556h-.832zm2.208-2.849c.331 0 .606-.084.823-.251s.379-.394.488-.679a2.7 2.7 0 0 0 .163-.966c0-.356-.054-.673-.163-.958s-.27-.511-.493-.678-.5-.251-.841-.251c-.325 0-.595.08-.809.241s-.373.38-.479.665-.158.609-.158.981c0 .365.051.692.153.98a1.42 1.42 0 0 0 .483.674c.216.164.494.242.832.242z" fill="#5e6f75"/><path d="M38 192c0-6.627 5.373-12 12-12h142c6.627 0 12 5.373 12 12v34a2 2 0 0 1-2 2H50c-6.627 0-12-5.373-12-12v-24z" fill="#ddd"/><path d="M51.896 200.876c-.459 0-.858-.066-1.199-.2s-.618-.313-.841-.529a2.43 2.43 0 0 1-.502-.707l.734-.455c.074.195.189.376.344.543s.36.302.604.405.545.153.892.153c.353 0 .649-.054.888-.163s.417-.261.535-.45.181-.412.181-.66c0-.282-.07-.499-.209-.651s-.327-.263-.562-.325-.49-.103-.772-.112l-.474-.019-.195-.004h-.088v-.79h.177.283l.237-.01c.415-.021.745-.127.99-.316s.367-.455.367-.79c0-.347-.125-.618-.377-.813s-.572-.293-.971-.293c-.378 0-.7.088-.967.265s-.474.404-.632.683l-.637-.544a2.56 2.56 0 0 1 .902-.85c.387-.226.84-.339 1.357-.339a2.88 2.88 0 0 1 .823.116c.266.074.502.189.706.344a1.63 1.63 0 0 1 .493.581 1.77 1.77 0 0 1 .181.827c0 .344-.073.649-.218.916a1.63 1.63 0 0 1-.572.618c.325.108.579.288.762.539s.274.576.274.976c0 .418-.107.781-.321 1.088s-.505.545-.883.715-.815.251-1.311.251zm3.121.976v-1.798c.282 0 .483-.092.604-.275s.218-.491.293-.915l.121-.855.079-1.014.07-1.278h3.458v4.337h.488v1.798h-.79v-1.115h-3.532v1.115h-.79zm1.273-1.798h2.524V196.4h-1.882l-.037.693-.056.716-.07.678-.088.567c-.04.233-.087.429-.139.591a.99.99 0 0 1-.251.409zm7.077.822c-.471 0-.868-.116-1.19-.348s-.567-.553-.734-.953-.246-.854-.246-1.353c0-.505.082-.957.246-1.357s.412-.714.734-.943.724-.344 1.194-.344c.465 0 .865.116 1.199.348s.597.544.776.944.27.85.27 1.352-.09.953-.27 1.353a2.27 2.27 0 0 1-.776.953c-.335.232-.736.348-1.204.348zm-2.31 2.092v-7.251h.739v3.695h.093v3.556h-.832zm2.208-2.849c.331 0 .606-.084.823-.251a1.52 1.52 0 0 0 .488-.679c.108-.288.163-.61.163-.967s-.054-.672-.163-.957a1.46 1.46 0 0 0-.493-.679c-.22-.167-.5-.251-.841-.251-.325 0-.595.081-.809.242s-.373.38-.479.665-.158.609-.158.98a2.92 2.92 0 0 0 .153.981 1.45 1.45 0 0 0 .483.674c.217.161.494.242.832.242zm4.797.757c-.375 0-.689-.068-.944-.204s-.442-.322-.572-.549a1.49 1.49 0 0 1-.191-.743c0-.264.05-.491.149-.684s.245-.356.428-.483.401-.232.655-.307c.239-.065.505-.121.799-.167l.902-.135.851-.116-.297.172c.009-.446-.081-.776-.27-.99s-.508-.321-.967-.321c-.304 0-.57.07-.799.209s-.386.36-.479.67l-.785-.237c.121-.44.355-.786.702-1.037s.804-.376 1.371-.376c.456 0 .846.082 1.171.246a1.43 1.43 0 0 1 .706.734 1.59 1.59 0 0 1 .135.507 5.52 5.52 0 0 1 .028.567v3.105h-.734v-1.204l.172.112c-.189.405-.454.712-.795.92s-.75.311-1.236.311zm.126-.692c.297 0 .555-.053.771-.158a1.49 1.49 0 0 0 .53-.423c.133-.177.22-.369.26-.577.046-.154.071-.326.074-.515l.009-.442.288.125-.795.107-.739.112a5.39 5.39 0 0 0-.627.135c-.136.043-.265.099-.386.167a.88.88 0 0 0-.288.265.69.69 0 0 0-.107.395.8.8 0 0 0 .102.39c.071.124.18.225.325.303s.342.116.581.116zm3.672.553v-5.02h2.138a4.01 4.01 0 0 1 .409.023 2.21 2.21 0 0 1 .404.07c.27.071.491.219.665.442s.265.499.265.836a1.26 1.26 0 0 1-.088.493c-.056.139-.136.26-.242.363-.046.046-.098.088-.153.125s-.112.067-.167.088a1 1 0 0 1 .33.126 1.04 1.04 0 0 1 .414.404c.102.174.153.395.153.665 0 .341-.082.623-.246.846s-.39.371-.678.455a2.2 2.2 0 0 1-.4.07l-.423.014h-2.38zm.837-.674h1.497c.065 0 .143-.006.232-.019a2.11 2.11 0 0 0 .246-.046c.161-.047.277-.133.349-.26s.112-.265.112-.414c0-.198-.056-.36-.167-.483s-.252-.202-.432-.233c-.065-.018-.136-.029-.214-.032l-.2-.005h-1.422v1.492zm0-2.175h1.246c.087 0 .178-.005.274-.014s.18-.033.251-.061c.143-.052.246-.139.311-.26s.102-.259.102-.404a.79.79 0 0 0-.112-.423c-.071-.124-.181-.209-.33-.256-.099-.037-.211-.057-.335-.06l-.232-.01h-1.176v1.488zm6.339 2.988c-.508 0-.94-.113-1.297-.339s-.623-.544-.809-.944-.282-.855-.288-1.366c.006-.524.104-.984.293-1.38s.466-.711.823-.935.785-.334 1.287-.334c.53 0 .985.13 1.366.39a1.88 1.88 0 0 1 .772 1.069l-.818.247c-.105-.292-.277-.518-.516-.679s-.507-.242-.813-.242c-.344 0-.627.081-.85.242a1.4 1.4 0 0 0-.497.66c-.108.279-.164.599-.167.962.006.558.135 1.009.386 1.353s.631.511 1.129.511c.328 0 .601-.075.818-.223s.381-.371.493-.656l.837.219c-.174.468-.445.826-.813 1.073s-.813.372-1.334.372zm4.334-.139v-4.267h-1.748v-.753h4.322v.753h-1.748v4.267h-.827zm3.45 0v-5.02h2.138a4.01 4.01 0 0 1 .409.023c.149.013.284.036.404.07.27.071.491.219.665.442s.265.499.265.836c0 .189-.029.354-.088.493a1.05 1.05 0 0 1-.242.363 1.02 1.02 0 0 1-.153.125c-.056.037-.112.067-.167.088a1 1 0 0 1 .33.126 1.04 1.04 0 0 1 .414.404c.102.174.153.395.153.665 0 .341-.082.623-.246.846s-.391.371-.679.455a2.2 2.2 0 0 1-.4.07l-.423.014h-2.38zm.837-.674h1.497c.065 0 .143-.006.232-.019s.175-.028.246-.046c.161-.047.277-.133.349-.26s.111-.265.111-.414c0-.198-.056-.36-.167-.483s-.252-.202-.432-.233c-.065-.018-.136-.029-.214-.032l-.2-.005h-1.422v1.492zm0-2.175h1.246c.087 0 .178-.005.274-.014a1.09 1.09 0 0 0 .251-.061c.142-.052.246-.139.311-.26s.102-.259.102-.404c0-.161-.037-.302-.112-.423s-.181-.209-.33-.256c-.099-.037-.211-.057-.335-.06l-.232-.01h-1.176v1.488zm4.922 5.08l.971-2.64.014.781-2.194-5.392h.869l1.72 4.337h-.297l1.613-4.337h.841l-2.733 7.251h-.804zm6.466-7.836c-.232 0-.445-.058-.637-.172s-.346-.267-.46-.456-.172-.406-.172-.641h.669c0 .164.059.305.177.423a.58.58 0 0 0 .423.176.57.57 0 0 0 .423-.176.58.58 0 0 0 .177-.423h.669c0 .235-.057.449-.172.641a1.27 1.27 0 0 1-.46.456c-.192.114-.404.172-.637.172zm1.948.585v5.02h-.8v-3.7l-2.63 3.7h-.683v-5.02h.8v3.649l2.635-3.649h.679zm2.631 5.02v-4.267h-1.748v-.753h4.322v.753h-1.747v4.267h-.827zm5.629.139c-.492 0-.923-.108-1.292-.325s-.65-.525-.855-.916-.307-.852-.307-1.375c0-.549.101-1.023.302-1.423s.482-.712.842-.929.787-.33 1.273-.33c.505 0 .934.116 1.288.348s.622.564.799.995.257.943.232 1.538h-.836v-.297c-.009-.617-.135-1.077-.377-1.38s-.601-.461-1.078-.461c-.511 0-.9.165-1.166.493s-.4.8-.4 1.413c0 .592.133 1.05.4 1.376s.646.488 1.138.488c.332 0 .62-.076.865-.228s.437-.37.576-.655l.795.274c-.195.443-.49.787-.883 1.032s-.829.362-1.316.362zm-1.854-2.417v-.664h3.709v.664h-3.709zm5.636 2.278v-.855h.827v.855h-.827zm0-1.673v-5.02h.827v5.02h-.827zm4.451 1.673v-5.02h.711l1.905 3.895 1.906-3.895h.711v5.02h-.799v-3.295l-1.599 3.295h-.437l-1.599-3.295v3.295h-.799zm6.531 0l-.004-5.02h.832v1.817h.766l.447.01c.151.006.283.02.395.042a1.99 1.99 0 0 1 .683.265 1.26 1.26 0 0 1 .455.502c.109.21.163.472.163.785 0 .434-.113.778-.339 1.032s-.516.418-.879.502c-.124.028-.266.046-.427.056l-.451.009h-1.641zm.828-.683h.827l.311-.01a1.43 1.43 0 0 0 .307-.046c.158-.047.299-.138.423-.274s.19-.332.19-.586-.061-.456-.185-.595-.281-.231-.479-.274c-.09-.022-.185-.036-.284-.042l-.283-.009h-.827v1.836zm3.485.683v-5.02h.828v5.02h-.828zm6.299.139c-.471 0-.868-.116-1.19-.348s-.567-.553-.735-.953a3.56 3.56 0 0 1-.246-1.353c0-.505.082-.957.246-1.357a2.15 2.15 0 0 1 .735-.943c.325-.23.723-.344 1.194-.344.465 0 .865.116 1.199.348s.597.544.777.944.269.85.269 1.352-.09.953-.269 1.353a2.27 2.27 0 0 1-.777.953c-.334.232-.736.348-1.203.348zm-2.31 2.092v-7.251h.739v3.695h.093v3.556h-.832zm2.207-2.849c.332 0 .606-.084.823-.251s.38-.394.488-.679.163-.61.163-.967-.055-.672-.163-.957a1.46 1.46 0 0 0-.493-.679c-.22-.167-.5-.251-.841-.251-.325 0-.595.081-.809.242a1.41 1.41 0 0 0-.478.665c-.106.282-.158.609-.158.98 0 .366.051.693.153.981s.266.51.483.674.495.242.832.242zm4.798.757c-.375 0-.69-.068-.944-.204s-.441-.322-.571-.549a1.49 1.49 0 0 1-.191-.743c0-.264.05-.491.149-.684a1.34 1.34 0 0 1 .427-.483 2.2 2.2 0 0 1 .656-.307 7.38 7.38 0 0 1 .799-.167l.902-.135.85-.116-.297.172c.009-.446-.081-.776-.27-.99s-.508-.321-.966-.321c-.304 0-.57.07-.8.209s-.386.36-.478.67l-.786-.237c.121-.44.355-.786.702-1.037s.804-.376 1.371-.376c.455 0 .846.082 1.171.246a1.43 1.43 0 0 1 .707.734 1.58 1.58 0 0 1 .134.507 5.41 5.41 0 0 1 .028.567v3.105h-.734v-1.204l.172.112c-.189.405-.454.712-.795.92s-.75.311-1.236.311zm.125-.692c.298 0 .555-.053.772-.158s.396-.25.53-.423.22-.369.26-.577c.046-.154.071-.326.074-.515l.01-.442.288.125-.795.107-.739.112c-.232.037-.441.082-.627.135a2.02 2.02 0 0 0-.386.167c-.118.068-.214.157-.288.265s-.107.237-.107.395a.8.8 0 0 0 .102.39c.071.124.18.225.325.303s.343.116.581.116zm5.717.697c-.474-.003-.878-.105-1.213-.307s-.595-.503-.781-.897-.289-.875-.311-1.445c-.013-.264-.009-.553.009-.869l.102-.911a3.75 3.75 0 0 1 .186-.721 2.29 2.29 0 0 1 .354-.627c.154-.195.328-.357.52-.484.195-.133.414-.237.655-.311s.495-.132.758-.172l.799-.112.763-.12.083.743a6.6 6.6 0 0 1-.604.098l-.725.088a5.74 5.74 0 0 0-.716.144c-.226.059-.421.141-.585.247-.242.145-.428.364-.558.655s-.205.612-.232.971a1.73 1.73 0 0 1 .748-.655c.307-.139.633-.209.981-.209.449 0 .836.105 1.161.316a2.02 2.02 0 0 1 .749.86c.176.365.265.782.265 1.25 0 .496-.099.929-.298 1.301s-.479.66-.841.865-.782.305-1.269.302zm.051-.786c.487 0 .855-.15 1.106-.45s.377-.707.377-1.209c0-.514-.13-.919-.391-1.213s-.625-.446-1.096-.446c-.478 0-.843.149-1.097.446s-.377.699-.377 1.213.127.924.381 1.218.62.441 1.097.441zm5.521.781c-.499 0-.93-.113-1.293-.339s-.636-.539-.831-.939-.293-.858-.293-1.376c0-.526.099-.988.297-1.385s.479-.705.841-.925.789-.334 1.279-.334c.502 0 .934.113 1.296.339s.64.535.832.934.293.854.293 1.371c0 .524-.098.986-.293 1.385a2.25 2.25 0 0 1-.836.935c-.363.223-.794.334-1.292.334zm0-.785c.52 0 .907-.174 1.162-.521s.381-.796.381-1.348c0-.567-.129-1.017-.386-1.352s-.643-.507-1.157-.507c-.351 0-.639.079-.865.237s-.395.377-.507.656-.167.601-.167.966c0 .564.13 1.017.391 1.358s.643.511 1.148.511zm4.665.646v-4.267h-1.748v-.753h4.323v.753h-1.748v4.267h-.827zm4.718.139c-.375 0-.69-.068-.944-.204s-.441-.322-.571-.549a1.49 1.49 0 0 1-.191-.743c0-.264.05-.491.149-.684a1.34 1.34 0 0 1 .427-.483 2.2 2.2 0 0 1 .656-.307 7.38 7.38 0 0 1 .799-.167l.902-.135.85-.116-.297.172c.009-.446-.081-.776-.27-.99s-.508-.321-.966-.321c-.304 0-.57.07-.8.209s-.386.36-.478.67l-.786-.237c.121-.44.355-.786.702-1.037s.804-.376 1.371-.376c.455 0 .846.082 1.171.246a1.43 1.43 0 0 1 .707.734 1.58 1.58 0 0 1 .134.507 5.41 5.41 0 0 1 .028.567v3.105h-.734v-1.204l.172.112c-.189.405-.454.712-.795.92s-.75.311-1.236.311zm.125-.692c.298 0 .555-.053.772-.158s.396-.25.53-.423.22-.369.26-.577c.046-.154.071-.326.074-.515l.01-.442.288.125-.795.107-.739.112c-.232.037-.441.082-.627.135a2.02 2.02 0 0 0-.386.167c-.118.068-.214.157-.288.265s-.107.237-.107.395a.8.8 0 0 0 .102.39c.071.124.18.225.325.303s.343.116.581.116zm5.852.692c-.493 0-.923-.108-1.292-.325a2.27 2.27 0 0 1-.855-.916c-.205-.393-.307-.852-.307-1.375 0-.549.101-1.023.302-1.423s.482-.712.841-.929.787-.33 1.274-.33c.505 0 .934.116 1.287.348a2.11 2.11 0 0 1 .8.995c.179.431.257.943.232 1.538h-.837v-.297c-.009-.617-.134-1.077-.376-1.38s-.601-.461-1.078-.461c-.512 0-.901.165-1.167.493s-.4.8-.4 1.413c0 .592.134 1.05.4 1.376s.646.488 1.139.488c.331 0 .619-.076.864-.228s.437-.37.577-.655l.794.274c-.195.443-.489.787-.883 1.032s-.829.362-1.315.362zm-1.855-2.417v-.664h3.709v.664h-3.709zm5.031 2.278v-5.02h.711l1.906 3.895 1.905-3.895h.711v5.02h-.799v-3.295l-1.599 3.295h-.437l-1.599-3.295v3.295h-.799zM51.854 213.876c-.493 0-.923-.108-1.292-.325s-.651-.525-.855-.916-.307-.852-.307-1.375c0-.549.101-1.023.302-1.423s.482-.712.841-.929.787-.33 1.273-.33c.505 0 .934.116 1.287.348s.623.564.799.995.257.943.232 1.538H53.3v-.297c-.009-.617-.135-1.077-.376-1.38s-.601-.461-1.078-.461c-.511 0-.9.165-1.167.493s-.4.8-.4 1.413c0 .592.133 1.05.4 1.376s.646.488 1.139.488c.331 0 .62-.076.864-.228a1.55 1.55 0 0 0 .576-.655l.795.274c-.195.443-.49.787-.883 1.032s-.829.362-1.315.362zM50 211.459v-.664h3.709v.664H50zm4.432 2.278l2.026-2.51-1.929-2.51h.92l1.864 2.464v-2.464h.753v2.464l1.864-2.464h.92l-1.929 2.51 2.026 2.51h-.962l-1.919-2.464v2.464h-.753v-2.464l-1.919 2.464h-.962zm9.251.139c-.493 0-.923-.108-1.292-.325s-.651-.525-.855-.916-.307-.852-.307-1.375c0-.549.101-1.023.302-1.423s.482-.712.841-.929.787-.33 1.274-.33c.505 0 .934.116 1.287.348s.623.564.799.995.257.943.232 1.538h-.837v-.297c-.009-.617-.135-1.077-.376-1.38s-.601-.461-1.078-.461c-.511 0-.9.165-1.167.493s-.4.8-.4 1.413c0 .592.133 1.05.4 1.376s.646.488 1.139.488c.332 0 .62-.076.864-.228a1.55 1.55 0 0 0 .576-.655l.795.274c-.195.443-.49.787-.883 1.032s-.829.362-1.315.362zm-1.855-2.417v-.664h3.709v.664h-3.709zm4.799 3.393v-1.798c.282 0 .483-.092.604-.275s.219-.491.293-.915l.121-.855.079-1.014.07-1.278h3.458v4.337h.488v1.798h-.79v-1.115h-3.532v1.115h-.79zm1.273-1.798h2.524V209.4h-1.882l-.037.693-.056.716-.07.678-.088.567a4.31 4.31 0 0 1-.139.591c-.053.161-.136.297-.251.409zm4.767.683v-5.02h.827v2.115h2.64v-2.115h.827v5.02h-.827v-2.12h-2.64v2.12h-.827zm7.772.139c-.493 0-.923-.108-1.292-.325s-.651-.525-.855-.916-.307-.852-.307-1.375c0-.549.101-1.023.302-1.423s.482-.712.841-.929.787-.33 1.274-.33c.505 0 .934.116 1.287.348s.623.564.799.995.257.943.232 1.538h-.837v-.297c-.009-.617-.135-1.077-.377-1.38s-.601-.461-1.078-.461c-.511 0-.9.165-1.167.493s-.4.8-.4 1.413c0 .592.133 1.05.4 1.376s.646.488 1.139.488c.332 0 .62-.076.864-.228a1.55 1.55 0 0 0 .576-.655l.795.274c-.195.443-.49.787-.883 1.032s-.829.362-1.315.362zm-1.855-2.417v-.664h3.709v.664h-3.709zm5.167 2.278v-5.02h2.138c.127 0 .263.008.409.023s.283.036.404.07c.27.071.491.219.665.442s.265.499.265.836a1.26 1.26 0 0 1-.088.493c-.056.139-.136.26-.242.363a1.02 1.02 0 0 1-.153.125.84.84 0 0 1-.167.088 1 1 0 0 1 .33.126 1.04 1.04 0 0 1 .414.404c.102.174.153.395.153.665 0 .341-.082.623-.246.846s-.39.371-.679.455a2.2 2.2 0 0 1-.4.07l-.423.014h-2.38zm.837-.674h1.497a1.65 1.65 0 0 0 .232-.019c.093-.012.175-.028.246-.046.161-.047.277-.133.349-.26s.112-.265.112-.414c0-.198-.056-.36-.167-.483s-.252-.202-.432-.233c-.065-.018-.136-.029-.214-.032l-.2-.005h-1.422v1.492zm0-2.175h1.246a2.95 2.95 0 0 0 .274-.014 1.09 1.09 0 0 0 .251-.061c.143-.052.246-.139.311-.26s.102-.259.102-.404a.79.79 0 0 0-.112-.423c-.071-.124-.181-.209-.33-.256-.099-.037-.211-.057-.335-.06l-.232-.01h-1.176v1.488zm4.22 2.849v-5.02h.827v2.115h2.64v-2.115h.827v5.02h-.827v-2.12h-2.64v2.12h-.827zm7.734.139c-.499 0-.93-.113-1.292-.339s-.637-.539-.832-.939-.293-.858-.293-1.376c0-.526.099-.988.297-1.385s.479-.705.841-.925.789-.334 1.278-.334c.502 0 .934.113 1.297.339a2.18 2.18 0 0 1 .832.934c.195.397.293.854.293 1.371 0 .524-.098.986-.293 1.385s-.474.708-.837.935-.793.334-1.292.334zm0-.785c.52 0 .908-.174 1.162-.521s.381-.796.381-1.348c0-.567-.129-1.017-.386-1.352s-.643-.507-1.157-.507c-.35 0-.638.079-.865.237a1.42 1.42 0 0 0-.507.656c-.112.278-.167.601-.167.966 0 .564.13 1.017.391 1.358s.643.511 1.148.511zm7.42.785c-.508 0-.94-.113-1.296-.339a2.2 2.2 0 0 1-.809-.944c-.186-.399-.282-.855-.288-1.366.006-.524.103-.984.292-1.38a2.21 2.21 0 0 1 .823-.935c.356-.223.786-.334 1.288-.334.529 0 .985.13 1.366.39s.641.617.772 1.069l-.819.247a1.34 1.34 0 0 0-.515-.679 1.41 1.41 0 0 0-.814-.242c-.344 0-.627.081-.85.242s-.389.378-.498.66-.164.599-.167.962c.006.558.135 1.009.386 1.353s.63.511 1.129.511c.329 0 .601-.075.818-.223s.381-.371.493-.656l.837.219c-.174.468-.445.826-.814 1.073s-.813.372-1.334.372zm7.049 0c-.428 0-.806-.085-1.135-.255a1.95 1.95 0 0 1-.771-.721c-.186-.307-.279-.664-.279-1.073a2.1 2.1 0 0 1 .284-1.083c.192-.323.48-.57.864-.744l-.014.302c-.313-.152-.553-.366-.72-.641s-.251-.587-.251-.925c0-.378.086-.704.26-.976s.412-.484.716-.632.652-.223 1.046-.223.742.074 1.045.223a1.72 1.72 0 0 1 .716.632c.174.272.26.598.26.976 0 .338-.079.644-.237.92s-.401.488-.729.646l-.019-.297c.384.167.672.413.864.739a2.04 2.04 0 0 1 .293 1.083c0 .409-.094.766-.283 1.073s-.445.547-.776.721-.707.255-1.134.255zm0-.79c.39 0 .706-.107.948-.321s.367-.529.367-.938-.121-.725-.363-.939-.556-.326-.952-.326-.712.109-.953.326-.358.526-.358.939.121.722.362.938.558.321.949.321zm0-3.318c.34 0 .616-.086.827-.256s.316-.432.316-.776-.105-.601-.316-.772-.487-.26-.827-.26-.614.087-.828.26-.316.428-.316.772.106.602.316.776.49.256.828.256zm3.549 3.969v-.911h.911v.911h-.911zm4.615.139c-.434 0-.821-.097-1.162-.293a2.23 2.23 0 0 1-.804-.804c-.195-.34-.293-.728-.293-1.162v-2.454a2.3 2.3 0 0 1 .293-1.162 2.2 2.2 0 0 1 .804-.804c.341-.195.728-.292 1.162-.292s.821.097 1.162.292a2.14 2.14 0 0 1 .804.804 2.3 2.3 0 0 1 .293 1.162v2.454c0 .434-.098.822-.293 1.162a2.17 2.17 0 0 1-.804.804c-.341.196-.728.293-1.162.293zm0-.795c.264 0 .502-.063.716-.19s.384-.298.511-.511.191-.456.191-.716v-2.552a1.37 1.37 0 0 0-.191-.715 1.44 1.44 0 0 0-.511-.512c-.214-.127-.452-.19-.716-.19s-.499.063-.715.19-.385.298-.512.512a1.37 1.37 0 0 0-.19.715v2.552c0 .26.063.499.19.716a1.45 1.45 0 0 0 .512.511c.216.127.455.19.715.19zm5.819.795c-.434 0-.821-.097-1.162-.293s-.606-.466-.804-.804-.293-.728-.293-1.162v-2.454a2.3 2.3 0 0 1 .293-1.162c.198-.34.466-.608.804-.804s.728-.292 1.162-.292.821.097 1.162.292a2.14 2.14 0 0 1 .804.804 2.3 2.3 0 0 1 .293 1.162v2.454c0 .434-.098.822-.293 1.162a2.17 2.17 0 0 1-.804.804c-.341.196-.728.293-1.162.293zm0-.795c.263 0 .502-.063.716-.19s.384-.298.511-.511.191-.456.191-.716v-2.552a1.37 1.37 0 0 0-.191-.715 1.44 1.44 0 0 0-.511-.512c-.214-.127-.453-.19-.716-.19s-.499.063-.716.19a1.45 1.45 0 0 0-.511.512 1.37 1.37 0 0 0-.19.715v2.552c0 .26.063.499.19.716s.298.384.511.511.456.19.716.19zm5.049 1.771v-1.798c.282 0 .484-.092.604-.275s.219-.491.293-.915l.121-.855.079-1.014.07-1.278h3.458v4.337h.488v1.798h-.79v-1.115h-3.533v1.115h-.79zm1.274-1.798h2.523V209.4h-1.882l-.037.693-.056.716-.07.678-.088.567c-.04.233-.087.429-.139.591s-.137.297-.251.409zm6.91.822c-.499 0-.93-.113-1.293-.339s-.636-.539-.832-.939-.292-.858-.292-1.376c0-.526.099-.988.297-1.385s.479-.705.841-.925.789-.334 1.279-.334c.501 0 .934.113 1.296.339s.64.535.832.934.293.854.293 1.371c0 .524-.098.986-.293 1.385a2.25 2.25 0 0 1-.836.935c-.363.223-.794.334-1.292.334zm0-.785c.52 0 .907-.174 1.161-.521s.382-.796.382-1.348c0-.567-.129-1.017-.386-1.352s-.643-.507-1.157-.507c-.351 0-.639.079-.865.237s-.395.377-.507.656-.167.601-.167.966c0 .564.13 1.017.391 1.358s.642.511 1.148.511zm6.472.646v-5.777l-1.26.762v-.925l1.26-.753h.841v6.693h-.841zm4.799-6.828c.427 0 .813.102 1.157.307s.617.483.818.837a2.36 2.36 0 0 1 .307 1.203v2.227c0 .468-.101.881-.302 1.241a2.2 2.2 0 0 1-.837.845 2.38 2.38 0 0 1-1.218.307c-.365 0-.708-.076-1.027-.227a2.26 2.26 0 0 1-.804-.647l.618-.548a1.57 1.57 0 0 0 .525.465c.214.114.444.172.688.172.298 0 .56-.071.786-.214a1.51 1.51 0 0 0 .534-.558 1.48 1.48 0 0 0 .195-.743v-1.344l.182.205a2.16 2.16 0 0 1-.739.669 1.99 1.99 0 0 1-.981.251c-.415 0-.787-.097-1.115-.293a2.16 2.16 0 0 1-.781-.79c-.192-.334-.288-.709-.288-1.125a2.11 2.11 0 0 1 .311-1.129c.208-.341.483-.61.827-.809a2.24 2.24 0 0 1 1.144-.302zm0 .8c-.267 0-.51.065-.73.195a1.45 1.45 0 0 0-.521.52c-.13.217-.195.459-.195.725s.064.51.191.73a1.49 1.49 0 0 0 .52.521 1.41 1.41 0 0 0 .73.195 1.41 1.41 0 0 0 .73-.195c.22-.13.393-.304.52-.521s.195-.463.195-.73-.065-.503-.195-.72a1.43 1.43 0 0 0-.52-.525c-.217-.13-.459-.195-.725-.195zm3.587 6.028v-.911h.911v.911h-.911zm4.616.139c-.434 0-.821-.097-1.162-.293s-.606-.466-.804-.804-.293-.728-.293-1.162v-2.454a2.3 2.3 0 0 1 .293-1.162c.198-.34.466-.608.804-.804s.728-.292 1.162-.292.821.097 1.162.292a2.14 2.14 0 0 1 .804.804 2.3 2.3 0 0 1 .293 1.162v2.454c0 .434-.098.822-.293 1.162a2.17 2.17 0 0 1-.804.804c-.341.196-.728.293-1.162.293zm0-.795c.263 0 .502-.063.716-.19s.384-.298.511-.511.191-.456.191-.716v-2.552a1.37 1.37 0 0 0-.191-.715 1.44 1.44 0 0 0-.511-.512c-.214-.127-.453-.19-.716-.19s-.499.063-.716.19a1.44 1.44 0 0 0-.511.512 1.37 1.37 0 0 0-.191.715v2.552c0 .26.064.499.191.716s.297.384.511.511.456.19.716.19zm5.819.795c-.434 0-.821-.097-1.162-.293s-.606-.466-.804-.804-.293-.728-.293-1.162v-2.454a2.3 2.3 0 0 1 .293-1.162c.198-.34.466-.608.804-.804s.728-.292 1.162-.292.821.097 1.162.292a2.14 2.14 0 0 1 .804.804 2.3 2.3 0 0 1 .293 1.162v2.454c0 .434-.098.822-.293 1.162a2.17 2.17 0 0 1-.804.804c-.341.196-.728.293-1.162.293zm0-.795c.263 0 .502-.063.716-.19s.384-.298.511-.511.19-.456.19-.716v-2.552a1.37 1.37 0 0 0-.19-.715 1.45 1.45 0 0 0-.511-.512c-.214-.127-.453-.19-.716-.19s-.499.063-.716.19a1.44 1.44 0 0 0-.511.512 1.37 1.37 0 0 0-.191.715v2.552c0 .26.064.499.191.716s.297.384.511.511.456.19.716.19zm3.708.656v-.911h.911v.911h-.911z" fill="#545b66"/><path d="M162 256c0-6.627 5.373-12 12-12h56c6.627 0 12 5.373 12 12v15a2 2 0 0 1-2 2h-66c-6.627 0-12-5.373-12-12v-5z" fill="#03a9e1"/><path d="M182.402 263.139c-.666 0-1.231-.147-1.696-.441s-.82-.703-1.065-1.227-.362-1.13-.362-1.817.121-1.294.362-1.818.6-.932 1.065-1.227 1.03-.441 1.696-.441c.775 0 1.412.197 1.91.59s.848.923 1.037 1.59l-.841.223c-.137-.499-.38-.893-.73-1.181s-.809-.432-1.376-.432c-.499 0-.914.113-1.245.339s-.581.542-.749.948-.252.873-.255 1.409.079 1.002.246 1.408.418.719.753.948.751.339 1.25.339c.567 0 1.026-.144 1.376-.432s.593-.685.73-1.18l.841.223c-.189.663-.535 1.193-1.037 1.589s-1.135.59-1.91.59zm3.962-.139v-5.02h4.113V263h-.827v-4.234h-2.459V263h-.827zm6.841.139c-.375 0-.689-.068-.943-.204a1.41 1.41 0 0 1-.572-.549 1.49 1.49 0 0 1-.19-.743 1.47 1.47 0 0 1 .148-.683c.103-.196.245-.357.428-.484s.401-.232.655-.306a7.39 7.39 0 0 1 .8-.168l.901-.135.851-.116-.298.172c.01-.446-.08-.776-.269-.99s-.508-.321-.967-.321a1.5 1.5 0 0 0-.799.21c-.226.136-.386.359-.479.669l-.785-.237a1.83 1.83 0 0 1 .701-1.037c.347-.251.804-.376 1.371-.376.456 0 .846.082 1.172.246a1.43 1.43 0 0 1 .706.735 1.6 1.6 0 0 1 .135.506 5.41 5.41 0 0 1 .028.567V263h-.735v-1.204l.172.112c-.189.406-.454.712-.794.92s-.75.311-1.237.311zm.126-.692c.297 0 .554-.053.771-.158a1.47 1.47 0 0 0 .53-.423 1.39 1.39 0 0 0 .26-.576c.047-.155.072-.327.075-.516l.009-.442.288.126-.794.107-.739.111a5.38 5.38 0 0 0-.628.135c-.136.043-.265.099-.386.167s-.213.157-.288.265a.69.69 0 0 0-.107.395.79.79 0 0 0 .428.693c.149.077.342.116.581.116zm5.791.692c-.508 0-.94-.113-1.297-.339s-.623-.544-.808-.943a3.33 3.33 0 0 1-.289-1.367c.007-.523.104-.984.293-1.38a2.2 2.2 0 0 1 .823-.934c.356-.223.785-.335 1.287-.335.53 0 .986.13 1.367.39a1.88 1.88 0 0 1 .771 1.069l-.818.247c-.105-.292-.277-.518-.516-.679s-.506-.242-.813-.242c-.344 0-.627.081-.851.242s-.388.378-.497.66-.164.6-.167.962c.006.558.135 1.009.386 1.353s.63.511 1.129.511c.328 0 .601-.074.818-.223s.381-.37.493-.655l.836.218c-.173.468-.444.826-.813 1.074s-.813.371-1.334.371zm7.204-5.159V263h-.799v-3.7l-2.631 3.7h-.683v-5.02h.8v3.649l2.635-3.649h.678zm3.343 5.164c-.475-.003-.879-.105-1.214-.307s-.594-.503-.78-.897-.29-.875-.312-1.445a8.27 8.27 0 0 1 .01-.869l.102-.911c.049-.292.111-.532.186-.721a2.26 2.26 0 0 1 .353-.627 2.25 2.25 0 0 1 .52-.483 2.39 2.39 0 0 1 .656-.312 5.29 5.29 0 0 1 .757-.172l.8-.111.762-.121.084.743a6.3 6.3 0 0 1-.605.098l-.725.088c-.247.034-.486.082-.715.144s-.422.141-.586.247c-.242.145-.428.364-.558.655s-.204.612-.232.971c.192-.297.441-.515.748-.655a2.35 2.35 0 0 1 .981-.209c.449 0 .836.105 1.162.316s.575.494.748.86a2.83 2.83 0 0 1 .265 1.25c0 .496-.099.93-.297 1.301a2.12 2.12 0 0 1-.842.865c-.359.204-.782.305-1.268.302zm.051-.785c.486 0 .855-.151 1.106-.451s.376-.707.376-1.209c0-.514-.13-.918-.39-1.213s-.626-.446-1.097-.446c-.477 0-.843.149-1.097.446s-.376.699-.376 1.213.127.924.381 1.218.619.442 1.097.442zm5.52.78c-.499 0-.93-.113-1.292-.339a2.24 2.24 0 0 1-.832-.939c-.195-.399-.293-.858-.293-1.375 0-.527.099-.989.298-1.385s.478-.705.841-.925.788-.335 1.278-.335c.502 0 .934.113 1.297.339s.64.535.832.934a3.12 3.12 0 0 1 .292 1.372c0 .523-.097.985-.292 1.385a2.25 2.25 0 0 1-.837.934c-.362.223-.793.334-1.292.334zm0-.785c.521 0 .908-.174 1.162-.521s.381-.796.381-1.347c0-.567-.129-1.018-.386-1.353s-.643-.507-1.157-.507c-.35 0-.638.079-.865.237a1.41 1.41 0 0 0-.506.656c-.111.279-.167.601-.167.967 0 .563.13 1.016.39 1.357s.643.511 1.148.511zm3.91.646v-.855h.827V263h-.827zm0-1.673v-5.02h.827v5.02h-.827zM52.651 26v-6.693h.827v2.951h3.523v-2.951h.827V26h-.827v-2.956h-3.523V26h-.827zm7.908.139c-.375 0-.689-.068-.944-.204s-.441-.322-.572-.548-.191-.474-.191-.744c0-.263.05-.491.149-.683a1.33 1.33 0 0 1 .428-.483 2.27 2.27 0 0 1 .655-.307 7.43 7.43 0 0 1 .799-.167l.902-.135.851-.116-.297.172c.009-.446-.081-.776-.27-.99s-.508-.321-.967-.321c-.304 0-.57.07-.799.209s-.386.36-.479.669l-.785-.237c.121-.44.355-.786.702-1.037s.804-.376 1.371-.376c.456 0 .846.082 1.171.246a1.43 1.43 0 0 1 .706.734c.071.155.116.324.135.507a5.51 5.51 0 0 1 .028.567V26h-.734v-1.204l.172.112c-.189.406-.454.713-.795.92s-.75.311-1.236.311zm.126-.692c.297 0 .555-.053.772-.158a1.46 1.46 0 0 0 .53-.423 1.37 1.37 0 0 0 .26-.576c.046-.155.071-.327.074-.516l.009-.442.288.125-.795.107-.739.112a5.5 5.5 0 0 0-.627.135c-.136.043-.265.099-.386.167a.88.88 0 0 0-.288.265.69.69 0 0 0-.107.395.8.8 0 0 0 .102.39.79.79 0 0 0 .325.302c.149.078.342.116.581.116zm3.672.553v-5.02h4.113V26h-.827v-4.234h-2.459V26h-.827zm9.523-5.02V26h-.799v-3.7L70.45 26h-.683v-5.02h.799v3.649l2.635-3.649h.678zM75.177 26v-5.02h.799v4.267h1.729V20.98h.799v4.267h1.724V20.98h.799V26h-5.852zm11.257-5.02V26h-.799v-3.7L83.004 26h-.683v-5.02h.799v3.649l2.635-3.649h.679zM89.065 26v-4.267h-1.748v-.753h4.322v.753h-1.748V26h-.827zm5.63.139c-.493 0-.923-.108-1.292-.325a2.28 2.28 0 0 1-.855-.916c-.204-.393-.307-.852-.307-1.376 0-.548.101-1.023.302-1.422a2.21 2.21 0 0 1 .841-.93c.362-.22.787-.33 1.273-.33.505 0 .934.116 1.287.349a2.12 2.12 0 0 1 .799.995c.176.431.257.944.232 1.538h-.837v-.297c-.009-.617-.135-1.077-.376-1.38s-.601-.46-1.078-.46c-.511 0-.9.164-1.167.493s-.4.799-.4 1.413c0 .592.133 1.05.4 1.376s.646.488 1.139.488c.332 0 .62-.076.865-.228a1.55 1.55 0 0 0 .576-.655l.795.274a2.25 2.25 0 0 1-.883 1.032c-.39.242-.829.362-1.315.362zm-1.855-2.417v-.665h3.709v.665H92.84zm9.147 2.417c-.509 0-.941-.113-1.297-.339a2.17 2.17 0 0 1-.809-.944c-.186-.4-.282-.855-.288-1.366.006-.524.104-.984.293-1.38s.466-.711.822-.934.786-.335 1.288-.335c.53 0 .985.13 1.366.39s.642.617.772 1.069l-.818.246c-.106-.291-.277-.518-.516-.679s-.507-.242-.813-.242c-.344 0-.628.081-.851.242a1.41 1.41 0 0 0-.497.66c-.108.282-.165.6-.168.962.007.558.135 1.009.386 1.352s.631.511 1.13.511c.328 0 .601-.074.818-.223s.381-.37.492-.655l.837.218c-.174.468-.445.826-.814 1.074s-.813.372-1.333.372zm5.097 0c-.499 0-.929-.113-1.292-.339a2.25 2.25 0 0 1-.832-.939c-.195-.4-.293-.858-.293-1.376 0-.527.1-.989.298-1.385s.479-.705.841-.925.789-.335 1.278-.335c.502 0 .934.113 1.297.339a2.18 2.18 0 0 1 .832.934c.195.397.293.854.293 1.371 0 .524-.098.985-.293 1.385a2.24 2.24 0 0 1-.837.934c-.362.223-.793.335-1.292.335zm0-.785c.521 0 .908-.174 1.162-.521s.381-.796.381-1.348c0-.567-.128-1.018-.385-1.353s-.643-.507-1.158-.507c-.35 0-.638.079-.864.237s-.395.376-.507.655-.167.601-.167.967c0 .564.13 1.016.39 1.357s.643.511 1.148.511zm5.583.785c-.499 0-.93-.113-1.292-.339a2.25 2.25 0 0 1-.832-.939c-.195-.4-.293-.858-.293-1.376 0-.527.099-.989.298-1.385s.478-.705.841-.925.788-.335 1.278-.335c.502 0 .934.113 1.297.339a2.18 2.18 0 0 1 .832.934c.195.397.293.854.293 1.371 0 .524-.098.985-.293 1.385a2.22 2.22 0 0 1-.837.934c-.363.226-.793.335-1.292.335zm0-.785c.521 0 .908-.174 1.162-.521s.381-.796.381-1.348c0-.567-.129-1.018-.386-1.353s-.643-.507-1.157-.507c-.35 0-.638.079-.864.237a1.41 1.41 0 0 0-.507.655c-.112.279-.167.601-.167.967 0 .564.13 1.016.39 1.357s.643.511 1.148.511zm5.485.79c-.474-.003-.878-.105-1.213-.307a2.02 2.02 0 0 1-.781-.897c-.186-.394-.289-.875-.311-1.445-.013-.263-.009-.553.009-.869l.102-.911a3.76 3.76 0 0 1 .186-.72 2.29 2.29 0 0 1 .354-.627 2.25 2.25 0 0 1 .52-.483 2.42 2.42 0 0 1 .655-.311 5.32 5.32 0 0 1 .758-.172l.799-.112.763-.121.083.744c-.17.037-.371.07-.604.098l-.725.088a5.76 5.76 0 0 0-.716.144 2.03 2.03 0 0 0-.585.246c-.242.146-.428.364-.558.655s-.205.612-.232.971a1.73 1.73 0 0 1 .748-.655 2.35 2.35 0 0 1 .981-.209c.449 0 .836.105 1.162.316a2.03 2.03 0 0 1 .748.86c.176.366.265.782.265 1.25 0 .496-.099.93-.298 1.301s-.478.66-.841.864-.782.305-1.269.302zm.051-.786c.487 0 .856-.15 1.106-.451s.377-.707.377-1.208c0-.514-.13-.919-.39-1.213s-.626-.446-1.097-.446c-.478 0-.843.149-1.097.446s-.377.699-.377 1.213.127.923.381 1.218.62.441 1.097.441zm8.997 1.571V26h-5.619v-5.02h.799v4.267h1.729V20.98h.8v4.267h1.724V20.98h.8v4.267h.594v1.683h-.827zm3.75-.79c-.492 0-.923-.108-1.292-.325s-.65-.525-.855-.916-.307-.852-.307-1.376c0-.548.101-1.023.302-1.422a2.23 2.23 0 0 1 .842-.93c.36-.217.787-.33 1.273-.33.505 0 .934.116 1.288.349a2.12 2.12 0 0 1 .799.995c.177.431.257.944.232 1.538h-.836v-.297c-.009-.617-.135-1.077-.377-1.38s-.601-.46-1.078-.46c-.511 0-.9.164-1.167.493s-.399.799-.399 1.413c0 .592.133 1.05.399 1.376s.647.488 1.139.488c.332 0 .62-.076.865-.228a1.55 1.55 0 0 0 .576-.655l.795.274c-.195.443-.49.787-.883 1.032a2.45 2.45 0 0 1-1.316.362zm-1.854-2.417v-.665h3.709v.665h-3.709zM134.264 26v-5.02h.827v2.115h2.64V20.98h.827V26h-.827v-2.119h-2.64V26h-.827zm9.705-5.02V26h-.8v-3.7l-2.63 3.7h-.684v-5.02h.8v3.649l2.635-3.649h.679zm3.477 5.159c-.493 0-.924-.108-1.293-.325s-.65-.525-.855-.916-.307-.852-.307-1.376c0-.548.101-1.023.303-1.422s.481-.713.841-.93.787-.33 1.273-.33c.505 0 .935.116 1.288.349a2.12 2.12 0 0 1 .799.995c.176.431.257.944.233 1.538h-.837v-.297c-.009-.617-.135-1.077-.376-1.38s-.602-.46-1.079-.46c-.511 0-.9.164-1.166.493s-.4.799-.4 1.413c0 .592.133 1.05.4 1.376s.646.488 1.138.488c.332 0 .62-.076.865-.228s.437-.37.576-.655l.795.274c-.195.443-.49.787-.883 1.032a2.45 2.45 0 0 1-1.315.362zm-1.855-2.417v-.665h3.709v.665h-3.709z" fill="#fff"/><g stroke="#fff" stroke-linecap="round"><path d="M236.036 18.464l-7.071 7.071"/><path d="M236.036 18.464l-7.071 7.071"/><path d="M228.965 18.464l7.071 7.071"/><path d="M228.965 18.464l7.071 7.071"/></g><defs><filter id="A" x="0" y="0" width="283" height="346" filterUnits="userSpaceOnUse" color-interpolation-filters="sRGB"><feFlood flood-opacity="0" result="A"/><feColorMatrix in="SourceAlpha" values="0 0 0 0 0 0 0 0 0 0 0 0 0 0 0 0 0 0 127 0" result="B"/><feOffset dx="1" dy="20"/><feGaussianBlur stdDeviation="10"/><feComposite in2="B" operator="out"/><feColorMatrix values="0 0 0 0 0.162326 0 0 0 0 0.634183 0 0 0 0 0.779167 0 0 0 0.05 0"/><feBlend in2="A"/><feBlend in="SourceGraphic"/></filter></defs></svg>