<svg width="120" height="120" viewBox="0 0 120 120" fill="none" xmlns="http://www.w3.org/2000/svg">
<g clip-path="url(#clip0_944_2)">
<mask id="mask0_944_2" style="mask-type:luminance" maskUnits="userSpaceOnUse" x="0" y="0" width="120" height="120">
<path d="M120 0H0V120H120V0Z" fill="white"/>
</mask>
<g mask="url(#mask0_944_2)">
<path d="M14.3678 0.257912C8.3209 0.961037 2.8834 5.41415 0.961522 11.1798C0.680272 11.9767 0.352147 13.6642 0.234959 14.9298C0.0708965 16.4767 0.000584003 31.8751 0.047459 61.6407C0.117771 103.149 0.164646 106.149 0.539647 107.578C2.10996 113.391 6.75059 117.984 12.5397 119.461C14.0865 119.859 16.735 119.883 60.0006 119.883C103.266 119.883 105.914 119.859 107.461 119.461C113.32 117.961 117.961 113.32 119.461 107.461C119.859 105.914 119.883 103.266 119.883 60.0001C119.883 16.7579 119.859 14.086 119.461 12.5392C117.961 6.70322 113.438 2.13291 107.578 0.539158C106.149 0.164157 103.195 0.140721 61.0553 0.093846C36.3053 0.0704085 15.3053 0.140724 14.3678 0.257912ZM95.4615 31.0313C96.6803 31.5235 97.5006 32.672 97.5006 33.8673C97.5006 35.086 85.899 86.5079 85.4303 87.4454C84.8209 88.6173 83.7193 89.1798 82.1256 89.1798C80.5084 89.1798 81.4459 89.7423 68.0865 80.672L62.2272 76.711L57.6568 81.0235C55.149 83.4142 52.8053 85.5001 52.4537 85.6876C51.2584 86.3204 49.6647 85.9923 48.7037 84.9142C48.4693 84.6563 46.8053 80.086 44.9772 74.7423C43.1725 69.3985 41.649 65.0157 41.6256 64.9923C41.6022 64.9688 37.524 63.8438 32.5787 62.4845C22.5709 59.7423 22.5006 59.6954 22.5006 57.8907C22.5006 57.2813 22.6647 56.7892 23.0397 56.3907C23.4381 55.922 30.8678 53.1563 58.36 43.2657C77.5084 36.3751 93.5162 30.7267 93.9381 30.7032C94.36 30.7032 95.0397 30.8438 95.4615 31.0313Z" fill="white"/>
<path d="M14.3678 0.257912C8.3209 0.961037 2.8834 5.41415 0.961522 11.1798C0.680272 11.9767 0.352147 13.6642 0.234959 14.9298C0.0708965 16.4767 0.000584003 31.8751 0.047459 61.6407C0.117771 103.149 0.164646 106.149 0.539647 107.578C2.10996 113.391 6.75059 117.984 12.5397 119.461C14.0865 119.859 16.735 119.883 60.0006 119.883C103.266 119.883 105.914 119.859 107.461 119.461C113.32 117.961 117.961 113.32 119.461 107.461C119.859 105.914 119.883 103.266 119.883 60.0001C119.883 16.7579 119.859 14.086 119.461 12.5392C117.961 6.70322 113.438 2.13291 107.578 0.539158C106.149 0.164157 103.195 0.140721 61.0553 0.093846C36.3053 0.0704085 15.3053 0.140724 14.3678 0.257912ZM95.4615 31.0313C96.6803 31.5235 97.5006 32.672 97.5006 33.8673C97.5006 35.086 85.899 86.5079 85.4303 87.4454C84.8209 88.6173 83.7193 89.1798 82.1256 89.1798C80.5084 89.1798 81.4459 89.7423 68.0865 80.672L62.2272 76.711L57.6568 81.0235C55.149 83.4142 52.8053 85.5001 52.4537 85.6876C51.2584 86.3204 49.6647 85.9923 48.7037 84.9142C48.4693 84.6563 46.8053 80.086 44.9772 74.7423C43.1725 69.3985 41.649 65.0157 41.6256 64.9923C41.6022 64.9688 37.524 63.8438 32.5787 62.4845C22.5709 59.7423 22.5006 59.6954 22.5006 57.8907C22.5006 57.2813 22.6647 56.7892 23.0397 56.3907C23.4381 55.922 30.8678 53.1563 58.36 43.2657C77.5084 36.3751 93.5162 30.7267 93.9381 30.7032C94.36 30.7032 95.0397 30.8438 95.4615 31.0313Z" fill="white"/>
<path d="M64.3358 52.1485C52.2655 59.0626 45.2343 63.2345 45.0233 63.586C44.7186 64.0782 44.9061 64.7813 47.3202 72.0235C48.7733 76.3595 50.039 79.922 50.1327 79.922C50.2265 79.922 50.6015 77.5548 50.953 74.6485C51.3046 71.7423 51.6327 69.211 51.703 69.047C51.7733 68.8829 59.0858 62.7892 67.9921 55.5235C80.7421 45.1173 84.1405 42.211 84.0936 41.836C84.0468 41.5782 83.8593 41.3438 83.6718 41.3204C83.4843 41.2735 74.789 46.1485 64.3358 52.1485Z" fill="white"/>
</g>
</g>
<defs>
<clipPath id="clip0_944_2">
<rect width="120" height="120" fill="white"/>
</clipPath>
</defs>
</svg>
