<?xml version="1.0" encoding="UTF-8"?> <svg xmlns="http://www.w3.org/2000/svg" width="1450" height="984" viewBox="0 0 1450 984" fill="none"> <path d="M1441.6 983.9H8.4C3.7 983.9 0 980.2 0 975.6V70.3003H1450V975.6C1450 980.2 1446.3 983.9 1441.6 983.9V983.9Z" fill="#FAFAFA"></path> <path d="M1450 70.3001H0V8.4001C0 3.8001 3.7 0.100098 8.4 0.100098H1441.6C1446.3 0.100098 1450 3.8001 1450 8.4001V70.3001Z" fill="#E2E2E2"></path> <path d="M38.9998 35.1999C38.9998 39.4999 35.3998 43.0999 31.0998 43.0999C26.7998 43.0999 23.2998 39.4999 23.2998 35.1999C23.2998 30.8999 26.7998 27.3999 31.0998 27.3999C35.3998 27.3999 38.9998 30.8999 38.9998 35.1999Z" fill="#F25F58"></path> <path d="M65.4998 35.1999C65.4998 39.4999 61.8998 43.0999 57.5998 43.0999C53.2998 43.0999 49.7998 39.4999 49.7998 35.1999C49.7998 30.8999 53.2998 27.3999 57.5998 27.3999C61.8998 27.3999 65.4998 30.8999 65.4998 35.1999Z" fill="#FBBE3C"></path> <path d="M91.9998 35.1999C91.9998 39.4999 88.3998 43.0999 84.0998 43.0999C79.7998 43.0999 76.2998 39.4999 76.2998 35.1999C76.2998 30.8999 79.7998 27.3999 84.0998 27.3999C88.3998 27.3999 91.9998 30.8999 91.9998 35.1999Z" fill="#58CB42"></path> <path d="M147.1 53.2002H123.6C120.2 53.2002 117.4 50.4002 117.4 46.9002V23.5002C117.4 20.0002 120.2 17.2002 123.6 17.2002H147.1C150.6 17.2002 153.4 20.0002 153.4 23.5002V46.9002C153.4 50.4002 150.6 53.2002 147.1 53.2002Z" fill="#FBFBFB" stroke="#CCCCCC" stroke-width="0.5"></path> <path d="M138.601 28.3C135.601 30.8333 132.634 33.3666 129.701 35.9C129.701 35.4333 129.701 34.9666 129.701 34.5C132.634 37.0333 135.601 39.6 138.601 42.2C139.601 43 138.101 44.5 137.101 43.6C134.167 41 131.201 38.4333 128.201 35.9C127.901 35.6 127.901 34.8 128.201 34.5C131.201 31.9 134.167 29.3333 137.101 26.8C138.101 26 139.601 27.4 138.601 28.3Z" fill="#737373"></path> <path d="M163.5 17.2002H187C190.4 17.2002 193.2 20.0002 193.2 23.5002V46.9002C193.2 50.4002 190.4 53.2002 187 53.2002H163.5C160 53.2002 157.2 50.4002 157.2 46.9002V23.5002C157.2 20.0002 160 17.2002 163.5 17.2002Z" fill="#FBFBFB" stroke="#CCCCCC" stroke-width="0.5"></path> <path d="M171.5 42.2C174.5 39.6 177.466 37.0333 180.4 34.5C180.4 35.0333 180.4 35.5333 180.4 36C177.466 33.4 174.5 30.8333 171.5 28.3C170.5 27.4 172 26 173 26.8C175.933 29.4 178.9 31.9666 181.9 34.5C182.3 34.9 182.3 35.6 181.9 36C178.9 38.5333 175.933 41.0666 173 43.6C172 44.4 170.5 43 171.5 42.2V42.2Z" fill="#B3B3B3"></path> <path d="M215.8 17.2002H255.5C259 17.2002 261.8 20.0002 261.8 23.5002V46.9002C261.8 50.4002 259 53.2002 255.5 53.2002H215.8C212.4 53.2002 209.6 50.4002 209.6 46.9002V23.5002C209.6 20.0002 212.4 17.2002 215.8 17.2002Z" fill="#FBFBFB" stroke="#CCCCCC" stroke-width="0.5"></path> <path d="M246.5 43.2004H225.3C225.1 43.2004 225 43.0004 225 42.8004V26.8004C225 26.6004 225.1 26.4004 225.3 26.4004H246.5C246.7 26.4004 246.9 26.6004 246.9 26.8004V42.8004C246.9 43.0004 246.7 43.2004 246.5 43.2004Z" stroke="#737373" stroke-width="1.4"></path> <path d="M232.3 27V43.7" stroke="#737373" stroke-width="1.4"></path> <path d="M227.6 32.7002H229.7" stroke="#737373"></path> <path d="M227.6 29.6001H229.7" stroke="#737373"></path> <path d="M227.6 35.8003H229.7" stroke="#737373"></path> <path d="M1383.2 17.2002H1422.9C1426.4 17.2002 1429.2 20.0002 1429.2 23.5002V46.9002C1429.2 50.4002 1426.4 53.2002 1422.9 53.2002H1383.2C1379.8 53.2002 1377 50.4002 1377 46.9002V23.5002C1377 20.0002 1379.8 17.2002 1383.2 17.2002Z" fill="#FBFBFB" stroke="#CCCCCC" stroke-width="0.5"></path> <path d="M1399.7 30.1V27.9C1399.7 27.7 1399.9 27.5 1400.1 27.5H1410.8C1411 27.5 1411.1 27.7 1411.1 27.9V38.5C1411.1 38.7 1411 38.9 1410.8 38.9H1408.4" stroke="#737373" stroke-width="1.4"></path> <path d="M1406.3 43.1999H1395.6C1395.4 43.1999 1395.3 43.0999 1395.3 42.8999V32.1999C1395.3 31.9999 1395.4 31.8999 1395.6 31.8999H1406.3C1406.5 31.8999 1406.6 31.9999 1406.6 32.1999V42.8999C1406.6 43.0999 1406.5 43.1999 1406.3 43.1999Z" stroke="#737373" stroke-width="1.4"></path> <path d="M1143.3 53.7002H387.9C384.5 53.7002 381.7 50.9002 381.7 47.4002V23.0002C381.7 19.6002 384.5 16.7002 387.9 16.7002H1143.3C1146.8 16.7002 1149.6 19.6002 1149.6 23.0002V47.4002C1149.6 50.9002 1146.8 53.7002 1143.3 53.7002Z" fill="white"></path> <path d="M420.4 22.8003V46.8003" stroke="#737373" stroke-width="1.4"></path> <path d="M400.5 40C397.1 40 394.2 37.2 394.2 33.8C394.2 30.3 397.1 27.5 400.5 27.5C404 27.5 406.8 30.3 406.8 33.8C406.8 37.2 404 40 400.5 40Z" stroke="#737373" stroke-width="1.3" stroke-linecap="round" stroke-linejoin="round"></path> <path d="M404.601 38.7998L409.201 43.4998" stroke="#737373" stroke-width="1.4" stroke-linecap="round" stroke-linejoin="round"></path> <path d="M1138.2 35.1001C1138.2 36.2334 1137.97 37.2668 1137.5 38.2001C1137.1 39.1334 1136.53 39.9668 1135.8 40.7001C1135.13 41.4334 1134.3 42.0001 1133.3 42.4001C1132.37 42.8001 1131.33 43.0001 1130.2 43.0001C1129.13 43.0001 1128.1 42.8001 1127.1 42.4001C1126.17 42.0001 1125.33 41.4334 1124.6 40.7001C1123.87 39.9668 1123.3 39.1334 1122.9 38.2001C1122.5 37.2668 1122.3 36.2334 1122.3 35.1001C1122.3 33.9668 1122.5 32.9334 1122.9 32.0001C1123.3 31.0668 1123.87 30.2334 1124.6 29.5001C1125.33 28.7668 1126.17 28.2001 1127.1 27.8001C1128.1 27.4001 1129.13 27.1668 1130.2 27.1001C1131.33 27.1668 1132.37 27.4001 1133.3 27.8001" stroke="#737373" stroke-width="1.4" stroke-linecap="round"></path> <path d="M1130.8 23.7002L1137.4 27.8002L1130.6 31.5002L1130.8 23.7002Z" fill="#737373"></path> </svg> 